<svg width="120" height="38" viewBox="0 0 120 38" fill="none" xmlns="http://www.w3.org/2000/svg">
<g clip-path="url(#clip0_138_1864)">
<path d="M14.3589 0.490402C15.2902 0.821423 16.2475 1.29343 17.2306 1.9187C18.0327 2.40297 18.6536 2.64204 19.0934 2.64204C19.4233 2.64204 19.6755 2.45814 19.8566 2.09647C20.0377 1.7348 20.1865 1.15244 20.2964 0.361671H21.5577C21.3766 2.36619 21.286 5.89095 21.286 10.936H20.0248C19.8049 8.13454 18.9576 5.77448 17.4829 3.86191C16.0082 1.94322 13.8608 0.986933 11.0537 0.986933C9.08748 0.986933 7.47696 1.5509 6.24158 2.67269C4.99973 3.79448 4.37881 5.24117 4.37881 7.00048C4.37881 8.31231 4.69574 9.45249 5.33606 10.421C5.97639 11.3896 6.78489 12.2171 7.76802 12.9098C8.75115 13.6025 10.1547 14.4852 11.9787 15.5519L13.5633 16.4836C15.8594 17.8322 17.6769 19.0153 19.0093 20.0329C20.3417 21.0505 21.4089 22.2213 22.211 23.5331C23.013 24.845 23.414 26.3836 23.414 28.1491C23.414 31.2938 22.3209 33.7212 20.1347 35.4315C17.9486 37.1418 15.1738 38 11.817 38C10.0641 38 8.63472 37.8284 7.52223 37.4789C6.40974 37.1357 5.34253 36.6698 4.32059 36.0813C3.51857 35.597 2.89764 35.358 2.45782 35.358C2.12796 35.358 1.87571 35.5419 1.6946 35.9035C1.5135 36.2652 1.36474 36.8476 1.25478 37.6383H0C0.142295 35.738 0.219911 31.588 0.219911 25.1944H1.48116C1.73341 28.6885 2.64539 31.5206 4.21711 33.6967C5.78235 35.8729 8.1949 36.964 11.4353 36.964C13.4016 36.964 15.0833 36.3878 16.4674 35.2292C17.8516 34.0707 18.5436 32.3542 18.5436 30.0678C18.5436 28.1307 17.858 26.4878 16.4933 25.1453C15.1285 23.7967 12.9618 22.2765 10.0124 20.5846C7.85857 19.3402 6.11869 18.2368 4.78629 17.2683C3.45389 16.2997 2.36727 15.135 1.53291 13.768C0.692071 12.401 0.271654 10.8072 0.271654 8.97435C0.271654 6.06872 1.25478 3.84965 3.22751 2.31102C5.20024 0.772383 7.63866 0 10.5557 0C12.1598 0 13.4275 0.165511 14.3589 0.490402Z" fill="#474747"/>
<path d="M77.7966 1.55746C76.5224 1.62489 75.5716 1.80879 74.9507 2.10303C74.3297 2.39727 73.9093 2.88154 73.6959 3.55584C73.476 4.23015 73.366 5.22321 73.366 6.53503V37.4855H72.1048L49.1306 3.83783V31.2145C49.1306 32.5631 49.247 33.5623 49.4863 34.2243C49.7256 34.8802 50.1849 35.3584 50.8834 35.6526C51.5755 35.9469 52.6492 36.1308 54.1109 36.1982V37.2342C52.7979 37.13 50.9351 37.0809 48.5291 37.0809C46.3429 37.0809 44.6483 37.13 43.4388 37.2342V36.1982C44.713 36.1308 45.6638 35.9469 46.2847 35.6526C46.9056 35.3584 47.326 34.8741 47.5459 34.1998C47.7658 33.5255 47.8758 32.5325 47.8758 31.2206V6.01398C47.8758 4.70216 47.7658 3.752 47.5459 3.16352C47.326 2.57504 46.9185 2.17659 46.317 1.96817C45.7155 1.75975 44.7582 1.62489 43.4452 1.55133V0.521484C44.6483 0.625695 46.3429 0.674735 48.5355 0.674735C50.1784 0.674735 51.6013 0.625695 52.8044 0.521484L72.1177 28.7257V6.53503C72.1177 5.18643 72.0013 4.18724 71.762 3.52519C71.5226 2.86928 71.057 2.39114 70.3649 2.0969C69.6728 1.80266 68.5927 1.62489 67.1374 1.55133V0.521484C68.4504 0.625695 70.3131 0.674735 72.7192 0.674735C74.9054 0.674735 76.6 0.625695 77.8095 0.521484V1.55746H77.7966Z" fill="#474747"/>
<path d="M93.6366 0.490402C94.568 0.821423 95.5253 1.29343 96.5084 1.9187C97.3104 2.40297 97.9314 2.64204 98.3712 2.64204C98.701 2.64204 98.9533 2.45814 99.1344 2.09647C99.3155 1.7348 99.4643 1.15244 99.5742 0.361671H100.835C100.654 2.36619 100.564 5.89095 100.564 10.936H99.3026C99.0827 8.13454 98.2354 5.77448 96.7607 3.86191C95.286 1.94322 93.1386 0.986933 90.3315 0.986933C88.3653 0.986933 86.7547 1.5509 85.5194 2.67269C84.2775 3.79448 83.6566 5.24117 83.6566 7.00048C83.6566 8.31231 83.9735 9.45249 84.6138 10.421C85.2542 11.3896 86.0627 12.2171 87.0458 12.9098C88.0289 13.6025 89.4325 14.4852 91.2564 15.5519L92.8411 16.4836C95.1372 17.8322 96.9547 19.0153 98.2871 20.0329C99.6195 21.0505 100.687 22.2213 101.489 23.5331C102.291 24.845 102.692 26.3836 102.692 28.1491C102.692 31.2938 101.599 33.7212 99.4125 35.4315C97.2264 37.1418 94.4516 38 91.0947 38C89.3419 38 87.9125 37.8284 86.8 37.4789C85.6875 37.1357 84.6203 36.6698 83.5984 36.0813C82.7963 35.597 82.1754 35.358 81.7356 35.358C81.4057 35.358 81.1535 35.5419 80.9724 35.9035C80.7913 36.2652 80.6425 36.8476 80.5326 37.6383H79.2713C79.4136 35.738 79.4912 31.588 79.4912 25.1944H80.7525C81.0047 28.6885 81.9167 31.5206 83.4884 33.6967C85.0537 35.8729 87.4662 36.964 90.7067 36.964C92.6729 36.964 94.3546 36.3878 95.7387 35.2292C97.1229 34.0707 97.8149 32.3542 97.8149 30.0678C97.8149 28.1307 97.1293 26.4878 95.7646 25.1453C94.3999 23.7967 92.2331 22.2765 89.2837 20.5846C87.1299 19.3402 85.39 18.2368 84.0576 17.2683C82.7252 16.2997 81.6386 15.135 80.8042 13.768C79.9634 12.401 79.543 10.8072 79.543 8.97435C79.543 6.06872 80.5261 3.84965 82.4988 2.31102C84.478 0.772383 86.9164 0 89.8335 0C91.4375 0 92.7053 0.165511 93.6366 0.490402Z" fill="#474747"/>
<path d="M25.225 19.4132C26.6803 19.4132 27.8251 19.7749 28.6466 20.5044C29.468 21.2338 29.966 22.3127 30.1536 23.7471C30.3347 25.1816 30.4446 26.0214 30.4835 26.2604H31.7447C31.5248 23.1157 31.4148 20.6637 31.4148 18.8983V16.4095C31.4148 14.6134 31.4666 12.9889 31.5765 11.5361H30.3153L30.1536 12.5721C30.0048 13.7491 29.8173 14.7237 29.5779 15.5023C29.3386 16.2808 28.8729 16.9551 28.1809 17.5252C27.4888 18.0953 26.5057 18.3834 25.225 18.3834H25.1086V19.4193H25.225V19.4132Z" fill="#474747"/>
<path d="M26.0464 1.83864H30.5869C32.5209 1.83864 33.9567 2.08997 34.9075 2.59263C35.8583 3.09529 36.531 3.88607 36.932 4.97721C37.333 6.06835 37.6629 7.73572 37.9151 9.97931H39.1764C39.0664 9.1824 39.0147 8.11578 39.0147 6.76717C39.0147 4.97108 39.144 2.92978 39.3963 0.649414C37.1325 0.753624 33.3229 0.802665 27.961 0.802665C26.9778 0.802665 26.027 0.802665 25.1086 0.796535V1.85703C25.3996 1.84477 25.7101 1.83864 26.0464 1.83864Z" fill="#474747"/>
<path d="M40.4894 37.3564C40.2307 34.9044 40.1078 32.6914 40.1078 30.7176C40.1078 29.1605 40.1596 27.9161 40.2695 26.9844H39.0148C38.756 29.4364 38.355 31.2938 37.8117 32.5566C37.2619 33.8194 36.3952 34.7327 35.2116 35.3028C34.028 35.8729 32.301 36.161 30.0437 36.161H26.053C25.7166 36.161 25.4062 36.1549 25.1151 36.1426V37.2031C26.0336 37.2031 26.9779 37.197 27.9675 37.197C33.8275 37.197 38.0058 37.2522 40.4894 37.3564Z" fill="#474747"/>
<path d="M104.736 19.4132C106.191 19.4132 107.336 19.7749 108.157 20.5044C108.979 21.2338 109.477 22.3127 109.664 23.7471C109.845 25.1816 109.955 26.0214 109.994 26.2604H111.249C111.029 23.1157 110.919 20.6637 110.919 18.8983V16.4095C110.919 14.6134 110.971 12.9889 111.081 11.5361H109.819L109.658 12.5721C109.509 13.7491 109.321 14.7237 109.082 15.5023C108.843 16.2808 108.377 16.9551 107.685 17.5252C106.993 18.0953 106.01 18.3834 104.729 18.3834H104.613V19.4193H104.736V19.4132Z" fill="#474747"/>
<path d="M105.559 1.83864H110.099C112.033 1.83864 113.469 2.08997 114.42 2.59263C115.371 3.09529 116.043 3.88607 116.444 4.97721C116.845 6.06835 117.175 7.73572 117.427 9.97931H118.689C118.579 9.1824 118.527 8.11578 118.527 6.76717C118.527 4.97108 118.656 2.92978 118.909 0.649414C116.645 0.753624 112.835 0.802665 107.473 0.802665C106.49 0.802665 105.539 0.802665 104.621 0.796535V1.85703C104.912 1.84477 105.222 1.83864 105.559 1.83864Z" fill="#474747"/>
<path d="M120 37.3564C119.741 34.9044 119.618 32.6914 119.618 30.7176C119.618 29.1605 119.67 27.9161 119.78 26.9844H118.525C118.267 29.4364 117.866 31.2938 117.322 32.5566C116.773 33.8194 115.906 34.7327 114.722 35.3028C113.539 35.8729 111.812 36.161 109.554 36.161H105.564C105.227 36.161 104.917 36.1549 104.626 36.1426V37.2031C105.544 37.2031 106.488 37.197 107.478 37.197C113.344 37.197 117.516 37.2522 120 37.3564Z" fill="#474747"/>
</g>
<defs>
<clipPath id="clip0_138_1864">
<rect width="120" height="38" fill="white"/>
</clipPath>
</defs>
</svg>
