<svg width="77" height="77" viewBox="0 0 77 77" fill="none" xmlns="http://www.w3.org/2000/svg">
<g clip-path="url(#clip0_138_764)">
<path d="M38.4964 28.8156L28.7518 19.0638L38.5035 9.31201L48.2553 19.0638L38.4964 28.8156ZM30.7589 19.0638L38.4964 26.8085L46.2411 19.0638L38.4964 11.3262L30.7589 19.0638Z" fill="#C9AA4D"/>
<path d="M38.4964 21.1206L38.1418 20.9149C34.4539 18.7731 32.156 14.8085 32.156 10.5603C32.156 6.31206 34.4468 2.34043 38.1418 0.205674L38.4964 0L38.851 0.205674C42.539 2.34752 44.8369 6.31206 44.8369 10.5603C44.8369 14.8085 42.5461 18.7801 38.851 20.9149L38.4964 21.1206ZM38.4964 1.64539C35.4539 3.57447 33.5744 6.95036 33.5744 10.5603C33.5744 14.1702 35.4468 17.5461 38.4964 19.4752C41.539 17.5461 43.4184 14.1702 43.4184 10.5603C43.4184 6.95745 41.5461 3.57447 38.4964 1.64539Z" fill="#C9AA4D"/>
<path d="M38.4964 67.681L28.7518 57.9363L38.5035 48.1846L48.2553 57.9363L38.4964 67.681ZM30.7589 57.9363L38.4964 65.6739L46.2411 57.9363L38.4964 50.1917L30.7589 57.9363Z" fill="#C9AA4D"/>
<path d="M38.4964 77L38.1418 76.7943C34.4539 74.6524 32.156 70.6879 32.156 66.4397C32.156 62.1915 34.4468 58.2198 38.1418 56.0851L38.4964 55.8794L38.851 56.0851C42.539 58.2269 44.8369 62.1915 44.8369 66.4397C44.8369 70.6879 42.5461 74.6595 38.851 76.7943L38.4964 77ZM38.4964 57.5248C35.4539 59.4539 33.5744 62.8297 33.5744 66.4397C33.5744 70.0496 35.4468 73.4255 38.4964 75.3546C41.539 73.4255 43.4184 70.0496 43.4184 66.4397C43.4184 62.8297 41.5461 59.4539 38.4964 57.5248Z" fill="#C9AA4D"/>
<path d="M19.0638 48.2482L9.31915 38.4964L19.0709 28.7446L28.8227 38.4964L19.0638 48.2482ZM11.3262 38.4964L19.0638 46.2411L26.8085 38.4964L19.0638 30.7588L11.3262 38.4964Z" fill="#C9AA4D"/>
<path d="M10.5603 44.8366C6.31206 44.8366 2.34043 42.5458 0.205674 38.8508L0 38.4962L0.205674 38.1416C2.34043 34.4536 6.31206 32.1558 10.5603 32.1558C14.8085 32.1558 18.7801 34.4465 20.9149 38.1416L21.1206 38.4962L20.9149 38.8508C18.7801 42.5458 14.8085 44.8366 10.5603 44.8366ZM1.64539 38.4962C3.57447 41.5387 6.95036 43.4182 10.5603 43.4182C14.1702 43.4182 17.5461 41.5458 19.4752 38.4962C17.5461 35.4536 14.1702 33.5742 10.5603 33.5742C6.95745 33.5813 3.57447 35.4536 1.64539 38.4962Z" fill="#C9AA4D"/>
<path d="M57.9362 48.2482L48.1844 38.4964L57.9362 28.7446L67.6879 38.4964L57.9362 48.2482ZM50.1915 38.4964L57.9362 46.2411L65.6737 38.4964L57.9362 30.7588L50.1915 38.4964Z" fill="#C9AA4D"/>
<path d="M66.4397 44.8366C62.1914 44.8366 58.2198 42.5458 56.0851 38.8508L55.8794 38.4962L56.0851 38.1416C58.2198 34.4536 62.1914 32.1558 66.4397 32.1558C70.6879 32.1558 74.6595 34.4465 76.7943 38.1416L77 38.4962L76.7943 38.8508C74.6524 42.5458 70.6879 44.8366 66.4397 44.8366ZM57.5248 38.4962C59.4539 41.5387 62.8297 43.4182 66.4397 43.4182C70.0496 43.4182 73.4255 41.5458 75.3546 38.4962C73.4255 35.4536 70.0496 33.5742 66.4397 33.5742C62.8297 33.5813 59.4539 35.4536 57.5248 38.4962Z" fill="#C9AA4D"/>
<path d="M31.6525 31.6525H17.8652V17.8652H31.6525V31.6525ZM19.2837 30.234H30.234V19.2837H19.2837V30.234Z" fill="#C9AA4D"/>
<path d="M22.7376 26.7233C19.5957 26.7233 16.5248 25.4964 14.2624 23.2269C11.2553 20.2198 10.0709 15.7943 11.1702 11.6737L11.2766 11.2765L11.6738 11.1701C15.7943 10.0709 20.2199 11.2553 23.2269 14.2623C26.234 17.2694 27.4184 21.695 26.3191 25.8155L26.2128 26.2127L25.8156 26.3191C24.8014 26.5886 23.766 26.7233 22.7376 26.7233ZM12.4397 12.4397C11.6525 15.9574 12.7092 19.6737 15.2624 22.2198C17.8156 24.773 21.5248 25.8297 25.0425 25.0425C25.8298 21.5248 24.773 17.8084 22.2199 15.2623C19.6738 12.7162 15.9574 11.6524 12.4397 12.4397Z" fill="#C9AA4D"/>
<path d="M59.1348 59.1349H45.3475V45.3477H59.1348V59.1349ZM46.766 57.7165H57.7163V46.7661H46.766V57.7165Z" fill="#C9AA4D"/>
<path d="M62.2483 66.2341C59.1064 66.2341 56.0355 65.0071 53.7731 62.7376C50.766 59.7305 49.5816 55.305 50.6809 51.1844L50.7873 50.7873L51.1844 50.6809C55.305 49.5816 59.7305 50.766 62.7376 53.7731C65.7447 56.7802 66.9291 61.2057 65.8298 65.3263L65.7234 65.7234L65.3263 65.8298C64.3121 66.0993 63.2766 66.2341 62.2483 66.2341ZM51.9504 51.9504C51.1632 55.4681 52.2199 59.1844 54.7731 61.7305C57.3263 64.2837 61.0426 65.3476 64.5532 64.5532C65.3405 61.0355 64.2837 57.3192 61.7305 54.7731C59.1844 52.227 55.4681 51.1632 51.9504 51.9504Z" fill="#C9AA4D"/>
<path d="M31.6525 59.1349H17.8652V45.3477H31.6525V59.1349ZM19.2837 57.7165H30.234V46.7661H19.2837V57.7165Z" fill="#C9AA4D"/>
<path d="M14.7518 66.2341C13.7234 66.2341 12.6879 66.0993 11.6738 65.8298L11.2766 65.7234L11.1702 65.3263C10.0709 61.2057 11.2553 56.7802 14.2624 53.7731C17.2695 50.766 21.695 49.5816 25.8156 50.6809L26.2128 50.7873L26.3191 51.1844C27.4184 55.305 26.234 59.7305 23.2269 62.7376C20.9645 65 17.8936 66.2341 14.7518 66.2341ZM12.4397 64.5603C15.9574 65.3476 19.6738 64.2908 22.2199 61.7376C24.773 59.1844 25.8298 55.4752 25.0425 51.9575C21.5248 51.1703 17.8085 52.227 15.2624 54.7802C12.7163 57.3263 11.6525 61.0426 12.4397 64.5603Z" fill="#C9AA4D"/>
<path d="M59.1348 31.6525H45.3475V17.8652H59.1348V31.6525ZM46.766 30.234H57.7163V19.2837H46.766V30.234Z" fill="#C9AA4D"/>
<path d="M54.2625 26.7233C53.2341 26.7233 52.1986 26.5886 51.1844 26.3191L50.7873 26.2127L50.6809 25.8155C49.5816 21.695 50.766 17.2694 53.7731 14.2623C56.7802 11.2553 61.2057 10.0709 65.3263 11.1701L65.7234 11.2765L65.8298 11.6737C66.9291 15.7943 65.7447 20.2198 62.7376 23.2269C60.4752 25.4893 57.4043 26.7233 54.2625 26.7233ZM51.9504 25.0496C55.4681 25.8368 59.1844 24.7801 61.7305 22.2269C64.2837 19.6737 65.3405 15.9645 64.5532 12.4467C61.0355 11.6595 57.3192 12.7162 54.7731 15.2694C52.227 17.8155 51.1632 21.5318 51.9504 25.0496Z" fill="#C9AA4D"/>
<path d="M43.3185 4.83647L42.4013 5.91846L57.9657 19.1119L58.8828 18.0299L43.3185 4.83647Z" fill="#C9AA4D"/>
<path d="M33.2635 4.83932L17.6992 18.0327L18.6163 19.1147L34.1807 5.92131L33.2635 4.83932Z" fill="#C9AA4D"/>
<path d="M57.9663 58.0288L42.4019 71.2222L43.3191 72.3042L58.8834 59.1108L57.9663 58.0288Z" fill="#C9AA4D"/>
<path d="M18.611 58.0284L17.6938 59.1104L33.2582 72.3037L34.1754 71.2218L18.611 58.0284Z" fill="#C9AA4D"/>
<path d="M17.7478 17.9825L4.55438 33.5469L5.63637 34.464L18.8298 18.8997L17.7478 17.9825Z" fill="#C9AA4D"/>
<path d="M5.63777 42.6844L4.55579 43.6016L17.7492 59.1659L18.8312 58.2488L5.63777 42.6844Z" fill="#C9AA4D"/>
<path d="M58.8278 17.9779L57.7458 18.895L70.9392 34.4594L72.0212 33.5422L58.8278 17.9779Z" fill="#C9AA4D"/>
<path d="M70.9356 42.6861L57.7422 58.2505L58.8242 59.1677L72.0176 43.6033L70.9356 42.6861Z" fill="#C9AA4D"/>
<path d="M38.4965 48.5461C32.9575 48.5461 28.4468 44.0354 28.4468 38.4964C28.4468 32.9574 32.9575 28.4468 38.4965 28.4468C44.0355 28.4468 48.5461 32.9574 48.5461 38.4964C48.5461 44.0425 44.0426 48.5461 38.4965 48.5461ZM38.4965 29.8723C33.7376 29.8723 29.8653 33.7447 29.8653 38.5035C29.8653 43.2624 33.7376 47.1347 38.4965 47.1347C43.2553 47.1347 47.1277 43.2624 47.1277 38.5035C47.1277 33.7447 43.2553 29.8723 38.4965 29.8723Z" fill="#C9AA4D"/>
<path d="M38.4965 43.5671C35.7021 43.5671 33.4255 41.2905 33.4255 38.4962C33.4255 35.7019 35.7021 33.4253 38.4965 33.4253C41.2908 33.4253 43.5674 35.7019 43.5674 38.4962C43.5674 41.2905 41.2979 43.5671 38.4965 43.5671ZM38.4965 34.8508C36.4823 34.8508 34.844 36.4891 34.844 38.5033C34.844 40.5175 36.4823 42.1558 38.4965 42.1558C40.5106 42.1558 42.1489 40.5175 42.1489 38.5033C42.1489 36.4891 40.5106 34.8508 38.4965 34.8508Z" fill="#C9AA4D"/>
</g>
<defs>
<clipPath id="clip0_138_764">
<rect width="77" height="77" fill="white"/>
</clipPath>
</defs>
</svg>
