<svg width="79" height="78" viewBox="0 0 79 78" fill="none" xmlns="http://www.w3.org/2000/svg">
<g clip-path="url(#clip0_138_693)">
<path d="M39.4964 50.6457L25.6439 64.3229L39.4964 78L53.3488 64.3229L39.4964 50.6457ZM27.705 64.3229L39.4964 52.6807L51.2877 64.3229L39.4964 75.965L27.705 64.3229Z" fill="#C9AA4D"/>
<path d="M39.4964 37.9826L25.6439 51.6598L39.4964 65.3369L53.3488 51.6598L39.4964 37.9826ZM27.705 51.6598L39.4964 40.0177L51.2877 51.6598L39.4964 63.3019L27.705 51.6598Z" fill="#C9AA4D"/>
<path d="M39.4964 12.6633L25.6439 26.3404L39.4964 40.0176L53.3488 26.3404L39.4964 12.6633ZM27.705 26.3404L39.4964 14.6983L51.2877 26.3404L39.4964 37.9825L27.705 26.3404Z" fill="#C9AA4D"/>
<path d="M39.4964 0.000202179L25.6439 13.6774L39.4964 27.3545L53.3488 13.6774L39.4964 0.000202179ZM27.705 13.6774L39.4964 2.03524L51.2877 13.6774L39.4964 25.3195L27.705 13.6774Z" fill="#C9AA4D"/>
<path d="M13.8525 25.3192L0 39.0035L13.8525 52.6807L27.705 39.0035L13.8525 25.3192ZM2.06112 39.0035L13.8525 27.3614L25.6439 39.0035L13.8525 50.6456L2.06112 39.0035Z" fill="#C9AA4D"/>
<path d="M26.6781 25.3192L12.8256 39.0035L26.6781 52.6807L40.5306 39.0035L26.6781 25.3192ZM14.8794 39.0035L26.6708 27.3614L38.4622 39.0035L26.6781 50.6456L14.8794 39.0035Z" fill="#C9AA4D"/>
<path d="M52.3219 25.3192L38.4694 39.0035L52.3219 52.6807L66.1744 39.0035L52.3219 25.3192ZM40.5305 39.0035L52.3219 27.3614L64.1133 39.0035L52.3219 50.6456L40.5305 39.0035Z" fill="#C9AA4D"/>
<path d="M65.1475 25.3192L51.295 39.0035L65.1475 52.6807L79 39.0035L65.1475 25.3192ZM53.3561 39.0035L65.1475 27.3614L76.9389 39.0035L65.1475 50.6456L53.3561 39.0035Z" fill="#C9AA4D"/>
<path d="M31.1572 47.237H11.5656V66.5806H31.1572V47.237ZM13.0222 48.6752H29.7006V65.1424H13.0222V48.6752Z" fill="#C9AA4D"/>
<path d="M40.2247 38.2843H20.6331V57.6279H40.2247V38.2843ZM22.0897 39.7225H38.7681V56.1897H22.0897V39.7225Z" fill="#C9AA4D"/>
<path d="M58.3596 20.3791H38.768V39.7227H58.3596V20.3791ZM40.2247 21.8172H56.903V38.2845H40.2247V21.8172Z" fill="#C9AA4D"/>
<path d="M67.4271 11.4264H47.8355V30.77H67.4271V11.4264ZM49.2922 12.8646H65.9705V29.3318H49.2922V12.8646Z" fill="#C9AA4D"/>
<path d="M31.1572 11.4264H11.5656V30.77H31.1572V11.4264ZM13.0222 12.8646H29.7006V29.3318H13.0222V12.8646Z" fill="#C9AA4D"/>
<path d="M40.2247 20.3791H20.6331V39.7227H40.2247V20.3791ZM22.0897 21.8172H38.7681V38.2845H22.0897V21.8172Z" fill="#C9AA4D"/>
<path d="M58.3596 38.2843H38.768V57.6279H58.3596V38.2843ZM40.2247 39.7225H56.903V56.1897H40.2247V39.7225Z" fill="#C9AA4D"/>
<path d="M67.4271 47.237H47.8355V66.5806H67.4271V47.237ZM49.2922 48.6752H65.9705V65.1424H49.2922V48.6752Z" fill="#C9AA4D"/>
</g>
<defs>
<clipPath id="clip0_138_693">
<rect width="79" height="78" fill="white" transform="matrix(1 0 0 -1 0 78)"/>
</clipPath>
</defs>
</svg>
