<svg width="48" height="48" viewBox="0 0 48 48" fill="none" xmlns="http://www.w3.org/2000/svg">
<path d="M6.7059 16.9411C4.16472 18.0705 1.88237 22.1176 1.05884 24C1.34119 26.2587 4.94119 29.8823 6.7059 31.4118C6.14119 36.4941 7.41178 39.4118 8.11766 40.2353C11.2235 41.6471 15.2941 41.5294 16.9412 41.2941C18.9177 44.6824 22.4706 46.4706 24 46.9412C27.3883 46.0941 30.353 42.8235 31.4118 41.2941C35.0824 42.4235 38.8235 40.8235 40.2353 39.8824C41.9294 36.4941 41.6471 32.5883 41.2941 31.0588C44.6824 29.0824 46.4706 25.5294 46.9412 24C46.6588 21.1765 43.0588 17.8824 41.2941 16.5883C42.1412 12.0706 40.9412 9.0588 40.2353 8.1176C37.6941 6.14108 33.2941 6.35287 31.4118 6.70583C29.7177 3.88225 25.7647 1.76468 24 1.05884C21.4588 1.34119 18 4.94115 16.5883 6.70583C12.9177 5.85877 9.17649 7.29407 7.76472 8.1176C6.35296 10.9411 6.4706 15.1764 6.7059 16.9411Z" fill="#C9AA4D" stroke="#C9AA4D"/>
<path d="M34.5883 14.8235L13.4119 14.7885L13.4713 13.8598C13.8532 7.78849 17.7745 2.52315 23.7158 0.122654L24.0298 0L24.3438 0.131416C30.2767 2.5582 34.1809 7.83229 34.5459 13.9036L34.5883 14.8235ZM15.2452 13.0363L32.7465 13.0713C32.1185 8.17397 28.8507 3.96871 24.0213 1.87484C19.1749 3.95119 15.8987 8.14768 15.2452 13.0363Z" fill="white"/>
<path d="M23.9789 48L23.6648 47.8774C17.732 45.4506 13.8278 40.1765 13.4628 34.1052L13.4119 33.1765L34.5883 33.2116L34.5289 34.1402C34.147 40.2116 30.2257 45.4769 24.2844 47.8774L23.9789 48ZM15.2537 34.9287C15.8817 39.8173 19.1495 44.0226 23.9874 46.1164C28.8253 44.0401 32.11 39.8436 32.755 34.955L15.2537 34.9287Z" fill="white"/>
<path d="M14.7885 34.5883L13.8598 34.5289C7.78849 34.1472 2.52315 30.2275 0.122653 24.2886L0 23.9746L0.122653 23.6607C2.54944 17.7303 7.82353 13.8276 13.8949 13.4628L14.8235 13.4119L14.7885 34.5883ZM1.8836 23.9831C3.95995 28.8191 8.15645 32.1025 13.0451 32.7473L13.0801 15.2529C8.18273 15.8808 3.97747 19.1472 1.8836 23.9831Z" fill="white"/>
<path d="M33.1765 34.5883L33.2116 13.4119L34.1402 13.4713C40.2116 13.8532 45.4769 17.7745 47.8774 23.7158L48 24.0298L47.8686 24.3438C45.4418 30.2767 40.1678 34.1809 34.0964 34.5459L33.1765 34.5883ZM34.9637 15.2537L34.9287 32.755C39.8173 32.1269 44.0226 28.8592 46.1164 24.0213C44.0489 19.1834 39.8436 15.8987 34.9637 15.2537Z" fill="white"/>
<path d="M9.83012 24.7058L9.24148 24.0322C5.39012 19.6451 4.56603 13.3129 7.09717 7.51121L7.23171 7.20807L7.53444 7.07334C13.3367 4.56405 19.6603 5.40609 24.0331 9.27951L24.7058 9.87736L9.83012 24.7058ZM8.50989 8.48798C6.52535 13.2961 7.08035 18.4494 9.93944 22.2218L22.2251 9.96999C18.4578 7.09019 13.3115 6.52602 8.50989 8.48798Z" fill="white"/>
<path d="M33.7429 42.353C30.1254 42.353 26.6761 41.1155 23.9672 38.7163L23.2942 38.1187L38.168 23.2942L38.7569 23.9676C42.61 28.3535 43.4344 34.684 40.9022 40.4842L40.7676 40.7872L40.4647 40.9219C38.2606 41.8816 35.9723 42.353 33.7429 42.353ZM25.776 38.0261C29.5365 40.9051 34.6851 41.4775 39.4972 39.5077C41.4827 34.7009 40.9274 29.5489 38.0671 25.7776L25.776 38.0261Z" fill="white"/>
<path d="M14.2981 42.353C12.0498 42.353 9.74263 41.8736 7.51121 40.9064L7.20807 40.7718L7.07334 40.469C4.56405 34.6656 5.40609 28.3407 9.27951 23.9671L9.87736 23.2942L24.7058 38.1644L24.0322 38.7532C21.3292 41.1334 17.8936 42.353 14.2981 42.353ZM8.48798 39.4933C13.2961 41.4783 18.4494 40.9232 22.2218 38.0635L9.96998 25.7754C7.09019 29.535 6.52602 34.6824 8.48798 39.4933Z" fill="white"/>
<path d="M38.131 24.7058L23.2942 9.83382L23.9678 9.24466C28.3633 5.3899 34.6871 4.56508 40.4888 7.09845L40.7919 7.23311L40.9266 7.53611C43.4359 13.3435 42.5939 19.6727 38.7205 24.0493L38.131 24.7058ZM25.7782 9.93481L38.03 22.2313C40.9098 18.4692 41.4824 13.3183 39.512 8.50401C34.7039 6.51771 29.5506 7.0732 25.7782 9.93481Z" fill="white"/>
</svg>
