<svg width="48" height="48" viewBox="0 0 48 48" fill="none" xmlns="http://www.w3.org/2000/svg">
<path d="M34.5881 14.8235L13.4116 14.7885L13.471 13.8598C13.853 7.78849 17.7742 2.52315 23.7155 0.122654L24.0296 0L24.3436 0.131416C30.2764 2.5582 34.1807 7.83229 34.5457 13.9036L34.5881 14.8235ZM15.2449 13.0363L32.7463 13.0713C32.1182 8.17397 28.8505 3.96871 24.0211 1.87484C19.1747 3.95119 15.8985 8.14768 15.2449 13.0363Z" fill="#C9AA4D"/>
<path d="M23.9786 48L23.6646 47.8774C17.7318 45.4506 13.8275 40.1765 13.4625 34.1052L13.4116 33.1765L34.5881 33.2116L34.5287 34.1402C34.1467 40.2116 30.2255 45.4769 24.2842 47.8774L23.9786 48ZM15.2534 34.9287C15.8815 39.8173 19.1492 44.0226 23.9871 46.1164C28.825 44.0401 32.1097 39.8436 32.7548 34.955L15.2534 34.9287Z" fill="#C9AA4D"/>
<path d="M14.7885 34.5883L13.8598 34.5289C7.78849 34.1472 2.52315 30.2275 0.122653 24.2886L0 23.9746L0.122653 23.6607C2.54944 17.7303 7.82353 13.8276 13.8949 13.4628L14.8235 13.4119L14.7885 34.5883ZM1.8836 23.9831C3.95995 28.8191 8.15645 32.1025 13.0451 32.7473L13.0801 15.2529C8.18273 15.8808 3.97747 19.1472 1.8836 23.9831Z" fill="#C9AA4D"/>
<path d="M33.1763 34.5883L33.2113 13.4119L34.14 13.4713C40.2113 13.8532 45.4766 17.7745 47.8771 23.7158L47.9998 24.0298L47.8684 24.3438C45.4416 30.2767 40.1675 34.1809 34.0962 34.5459L33.1763 34.5883ZM34.9635 15.2537L34.9285 32.755C39.8171 32.1269 44.0223 28.8592 46.1162 24.0213C44.0486 19.1834 39.8433 15.8987 34.9635 15.2537Z" fill="#C9AA4D"/>
<path d="M9.83012 24.7058L9.24148 24.0322C5.39012 19.6451 4.56603 13.3129 7.09717 7.51121L7.23171 7.20807L7.53444 7.07334C13.3367 4.56405 19.6603 5.40609 24.0331 9.27951L24.7058 9.87736L9.83012 24.7058ZM8.50989 8.48798C6.52535 13.2961 7.08035 18.4494 9.93944 22.2218L22.2251 9.96999C18.4578 7.09019 13.3115 6.52602 8.50989 8.48798Z" fill="#C9AA4D"/>
<path d="M33.7426 42.353C30.1251 42.353 26.6759 41.1155 23.967 38.7163L23.2939 38.1187L38.1678 23.2942L38.7567 23.9676C42.6097 28.3535 43.4342 34.684 40.9019 40.4842L40.7673 40.7872L40.4645 40.9219C38.2603 41.8816 35.972 42.353 33.7426 42.353ZM25.7757 38.0261C29.5362 40.9051 34.6849 41.4775 39.497 39.5077C41.4824 34.7009 40.9272 29.5489 38.0668 25.7776L25.7757 38.0261Z" fill="#C9AA4D"/>
<path d="M14.2981 42.353C12.0498 42.353 9.74263 41.8736 7.51121 40.9064L7.20807 40.7718L7.07334 40.469C4.56405 34.6656 5.40609 28.3407 9.27951 23.9671L9.87736 23.2942L24.7058 38.1644L24.0322 38.7532C21.3292 41.1334 17.8936 42.353 14.2981 42.353ZM8.48798 39.4933C13.2961 41.4783 18.4494 40.9232 22.2218 38.0635L9.96998 25.7754C7.09019 29.535 6.52602 34.6824 8.48798 39.4933Z" fill="#C9AA4D"/>
<path d="M38.1308 24.7058L23.2939 9.83382L23.9676 9.24466C28.3631 5.3899 34.6868 4.56508 40.4885 7.09845L40.7917 7.23311L40.9264 7.53611C43.4357 13.3435 42.5936 19.6727 38.7202 24.0493L38.1308 24.7058ZM25.778 9.93481L38.0298 22.2313C40.9096 18.4692 41.4821 13.3183 39.5118 8.50401C34.7037 6.51771 29.5504 7.0732 25.778 9.93481Z" fill="#C9AA4D"/>
</svg>
