<svg width="88" height="36" viewBox="0 0 88 36" fill="none" xmlns="http://www.w3.org/2000/svg">
<path d="M5.26838 14.8328C3.13224 16.6261 0.273127 14.2387 2.40926 17.9353C4.54539 21.6429 4.24961 23.6122 4.24961 23.6122L6.92252 24.5033C6.92252 24.5033 11.9178 27.7269 15.8395 28.0899C19.7612 28.453 18.1619 30.9614 21.9083 32.3916C25.6548 33.8218 27.4403 30.0592 27.4403 30.0592L34.9332 31.1374L42.7876 34.1849C42.7876 34.1849 45.8221 31.3134 47.2461 29.8832C48.6702 28.453 54.739 28.453 60.0958 27.7379C65.4526 27.0227 70.0863 26.3076 73.6575 26.3076C77.2287 26.3076 80.7999 27.0227 81.8625 26.3076C82.8374 25.6585 85.5651 22.9411 86.058 22.446C82.7826 20.8507 78.6418 18.7824 78.6418 18.7824L68.8923 15.911C68.4212 16.6261 66.7562 16.384 59.3728 16.274C52.0004 16.153 52.833 15.1958 51.2884 14.2387C49.7438 13.2815 49.7438 11.6093 50.9268 10.058C52.1209 8.50676 52.5919 8.26472 52.1209 7.18655C51.6498 6.10838 48.6702 7.54961 45.4606 6.94451C42.5795 6.40542 43.905 2.56581 44.2117 1.77368C43.7188 1.94971 43.2258 2.12574 42.7219 2.27976C38.855 3.47895 35.2838 4.29308 32.4247 4.84317C32.0193 6.49344 32.7971 9.47492 31.9536 11.3012C31.0663 13.2265 26.3011 14.6237 23.179 15.1518C20.3309 15.6359 13.4624 10.113 12.2902 9.14486C10.4827 9.58493 8.59854 10.036 6.69245 10.4871C6.82391 11.3782 6.92251 13.4576 5.26838 14.8328Z" fill="white" stroke="#C9AA4D" stroke-width="1.5" stroke-miterlimit="10"/>
</svg>
