<svg width="118" height="48" viewBox="0 0 118 48" fill="none" xmlns="http://www.w3.org/2000/svg">
<path d="M7.33935 46.9608L35.1748 46.2457L41.5942 43.3742L45.8774 42.6591C45.8774 42.6591 48.7365 43.0222 49.4485 44.0894C50.1606 45.1675 70.1526 44.4524 70.1526 44.4524L77.295 42.3071L83.7143 41.2289L91.2072 38.0054L97.6265 36.5751L105.481 35.1449L110.476 33.7147L112.974 31.5693C112.974 31.5693 113.335 29.237 112.612 28.3458C111.9 27.4547 111.002 28.5219 109.041 27.2677C107.08 26.0135 106.182 25.1223 108.329 24.2202C110.465 23.329 113.861 23.8571 114.935 23.6811C116.008 23.505 118.331 23.318 116.545 20.4576C114.759 17.5971 112.087 16.5189 112.437 14.3626C112.799 12.2172 112.799 12.2172 112.799 12.2172L104.944 9.16975L97.4513 8.09157C97.4513 8.09157 95.6657 11.8542 91.9193 10.4239C88.1728 8.99372 89.7831 6.48531 85.8504 6.12225C81.9287 5.75919 76.9334 2.53568 76.9334 2.53568L74.2605 1.64453L70.8756 8.2786C70.8756 8.2786 68.5532 8.10257 66.5924 8.99371C64.6315 9.88486 60.5236 9.70883 59.8115 11.1391C59.0995 12.5693 58.0259 14.3626 61.2356 15.4408C64.4453 16.5189 69.2653 15.6168 68.0165 18.1252C66.7677 20.6336 65.3436 18.6643 63.3718 20.6336C61.4109 22.6029 60.8741 24.2202 60.3373 25.1113C59.8006 26.0025 56.5909 27.9828 53.918 26.3655C51.2451 24.7482 41.2436 25.6504 38.5707 24.3962C35.8978 23.142 33.7507 21.5247 32.1514 21.7118C30.552 21.8988 20.912 20.8206 20.912 20.8206L18.1296 20.5126C13.2986 23.384 7.94187 26.1125 6.98883 27.6307C5.20324 30.5022 -0.153544 35.519 1.2815 41.2509C1.61013 42.5491 1.79636 43.6273 1.89495 44.5404L4.85268 44.4854L7.33935 46.9608Z" fill="white" stroke="#C9AA4D" stroke-width="1.5" stroke-miterlimit="10"/>
</svg>
