<svg width="137" height="96" viewBox="0 0 137 96" fill="none" xmlns="http://www.w3.org/2000/svg">
<path d="M131.583 46.1345C130.871 45.1774 116.356 45.6615 116.356 45.6615L108.031 41.3598L100.417 36.816L97.7991 33.9446L87.8086 34.6597C87.8086 34.6597 84.9495 34.1866 82.1013 31.7882C79.2422 29.4009 77.5771 31.0731 75.6819 30.116C73.7868 29.1588 64.9794 27.7286 63.0733 24.8571C61.1672 21.9857 54.5068 21.2705 56.6539 18.8832C58.801 16.4958 58.078 13.8664 55.2299 13.6243C52.3707 13.3823 49.7526 13.8664 49.7526 11.952C49.7526 10.0377 49.0406 7.65036 47.3755 7.17728C45.7104 6.7042 37.385 1.32434 37.385 1.32434C37.385 1.32434 32.3897 4.54786 30.6041 5.26297C28.8185 5.97809 24.8968 1.32434 23.1112 0.961279C21.3256 0.598221 19.54 1.32434 19.1895 3.10663C19.1238 3.42568 19.1457 3.72273 19.2114 4.01977C19.2552 4.00877 19.2771 4.00877 19.2771 4.00877C19.2771 4.00877 19.2443 4.01977 19.2114 4.01977C19.4853 5.406 20.9313 6.58319 22.4101 7.77138C24.1957 9.20161 26.6934 12.0731 27.0549 14.2184C27.4164 16.3638 24.1957 21.3916 24.1957 21.3916L13.4932 22.4697L10.2835 19.5983C10.2835 19.5983 6.00024 19.5983 2.79057 19.2352C-0.419109 18.8722 2.42909 23.1739 1.95804 23.9L11.7076 26.7714C11.7076 26.7714 15.8374 28.8508 19.1238 30.435C19.1676 30.391 19.2114 30.347 19.2114 30.347C19.2114 30.347 19.1785 30.38 19.1238 30.435C20.756 31.2271 22.1801 31.9093 22.7716 32.1403C24.5572 32.8554 29.191 35.7269 33.1236 36.0789C37.0454 36.442 39.543 39.6655 38.4804 42.1739C37.4069 44.6823 33.1236 43.9672 30.9875 46.8387C28.8514 49.7101 25.9922 52.9336 25.9922 52.9336L32.0611 55.8051L40.266 57.9504C40.266 57.9504 49.183 60.0958 51.6916 60.0958C54.1892 60.0958 53.8277 63.3193 53.8277 65.8277C53.8277 68.3361 50.618 71.9227 50.9685 74.4311C51.33 76.9395 55.9638 79.0958 58.4615 81.6043C60.9591 84.1127 58.1 85.1908 58.4615 88.4143C58.7682 91.1758 63.873 94.2233 65.3628 95.0594L69.164 93.5522L80.5896 90.2957L93.264 84.8278L98.4345 81.6923L105.04 81.1532L111.909 81.2412L122.085 79.811L125.383 73.0889L123.301 69.4143L115.808 66.9059L116.4 63.9244L119.971 62.8462L119.259 59.6227L119.38 56.9933L135.165 56.0911C134.081 54.914 131.473 52.0315 130.915 50.8983C130.159 49.4791 132.295 47.0917 131.583 46.1345Z" fill="white" stroke="#C9AA4D" stroke-width="1.5" stroke-miterlimit="10"/>
</svg>
