<svg width="53" height="25" viewBox="0 0 53 25" fill="none" xmlns="http://www.w3.org/2000/svg">
<path d="M3.47162 13.9555C6.68129 14.5496 9.6609 13.1194 10.1319 14.1976C10.603 15.2757 10.132 15.5068 8.93791 17.069C7.74387 18.6203 7.74385 20.2925 9.29939 21.2497C10.844 22.2069 10.0114 23.164 17.3838 23.285C24.7562 23.406 26.4213 23.6481 26.9033 22.922C27.3743 22.2069 24.5262 17.9052 27.7358 18.2572C30.9455 18.6093 35.2287 18.6203 35.2287 18.6203L38.4384 21.4917L49.141 20.4136C49.141 20.4136 52.3506 15.3968 52.0001 13.2404C51.6386 11.0951 49.141 8.2236 47.3554 6.79337C45.8875 5.61618 44.4305 4.42799 44.1566 3.04177C43.598 3.15179 39.6544 3.89991 38.2522 3.56986C36.7405 3.2068 32.7201 2.5797 31.2084 2.49168C29.6967 2.40367 27.5496 2.94276 24.2523 2.5797C20.955 2.21664 15.9597 1.77657 15.0615 1.68856L14.6123 1.63354C11.4246 4.09794 7.19613 6.99141 2.21183 8.8067C1.92701 9.57682 0.590588 13.4164 3.47162 13.9555Z" fill="white" stroke="#C9AA4D" stroke-width="1.5" stroke-miterlimit="10"/>
</svg>
