<svg width="230" height="68" viewBox="0 0 230 68" fill="none" xmlns="http://www.w3.org/2000/svg">
<path d="M220.418 36.4253C220.056 33.2018 222.915 32.1236 220.418 29.6152C217.92 27.1068 213.275 24.9504 212.925 22.442C212.563 19.9336 215.784 16.3471 215.784 13.8387C215.784 11.3303 216.145 8.10673 213.648 8.10673C211.15 8.10673 202.222 5.96138 202.222 5.96138L194.017 3.81604L187.948 0.94458L178.67 4.1681C178.67 4.1681 166.894 6.6765 161.537 7.39162C156.18 8.10673 153.683 11.3303 146.902 11.3303C140.121 11.3303 137.985 9.53696 137.985 9.53696L135.487 11.6823L130.492 13.1125L122.638 14.5428L116.218 15.973L108.725 19.1965L102.306 20.2747L95.1636 22.42C95.1636 22.42 75.1825 23.1351 74.4595 22.057C73.7475 20.9788 70.8883 20.6267 70.8883 20.6267L66.6051 21.3419L60.1858 24.2133L32.3503 24.9284L29.8527 22.42L26.8949 22.475C27.2345 25.5665 26.4787 26.6887 25.92 27.7889C25.2079 29.2191 27.3441 28.8671 29.8417 30.2973C32.3393 31.7275 38.7587 33.1688 32.3393 39.6158C25.92 46.0628 11.2847 58.6159 11.2847 58.6159C11.2847 58.6159 7.51637 61.0032 1.60092 63.9187C2.86069 65.0189 5.77462 67.1312 9.49916 66.8672C14.4944 66.5041 20.9247 64.3588 20.9247 64.3588C20.9247 64.3588 23.7838 60.4201 26.632 60.4201C29.4912 60.4201 31.2768 61.8504 33.0514 62.2134C34.826 62.5765 43.0419 61.4983 44.477 60.0681C45.912 58.6378 48.7602 59.353 51.6193 60.4311C54.4784 61.5093 50.9073 60.0681 57.3266 58.2858C63.746 56.4925 74.8101 58.2858 74.4595 55.7774C74.098 53.269 72.6739 50.3975 74.098 47.5371C75.5221 44.6766 79.8053 43.5984 83.015 45.0287C86.2247 46.4589 89.4344 45.0287 89.4344 45.0287C89.4344 45.0287 90.5079 43.5984 94.7911 43.9505C99.0743 44.3026 105.494 46.0958 106.567 45.0287C107.641 43.9505 114.06 43.5984 116.207 42.5203C118.354 41.4421 118.705 36.0732 122.627 36.4253C126.548 36.7883 127.271 37.8555 129.769 39.2967C132.267 40.738 138.335 38.9337 138.335 38.9337L142.257 34.632L148.676 35.7102L157.243 33.9169L163.312 34.2799L172.952 42.1682L173.817 53.8741L200.316 53.28L206.023 55.7884L210.898 55.6674L223.266 44.6766L227.308 43.0704C225.84 42.2342 220.724 39.1867 220.418 36.4253Z" fill="white" stroke="#C9AA4D" stroke-width="1.5" stroke-miterlimit="10"/>
</svg>
