<svg width="71" height="36" viewBox="0 0 71 36" fill="none" xmlns="http://www.w3.org/2000/svg">
<path d="M37.6683 5.30767C34.0972 5.30767 29.4634 6.02278 24.1066 6.7379C18.7498 7.45301 12.681 7.45301 11.2569 8.88324C9.83284 10.3135 6.79846 13.1849 6.79846 13.1849C6.79846 13.1849 6.79844 13.1849 6.43694 15.3303C6.07544 17.4756 8.7593 18.5538 10.5449 21.4253C12.3305 24.2967 10.0081 24.4727 8.93457 24.6488C7.86103 24.8248 4.47608 24.2857 2.32899 25.1879C0.192852 26.079 1.08016 26.9811 3.04103 28.2353C5.00189 29.4895 5.90017 28.4114 6.61222 29.3135C7.32426 30.2047 6.97374 32.537 6.97374 32.537C6.97374 32.537 9.10985 34.3303 15.8907 34.3303C22.6716 34.3303 25.1692 31.1068 30.526 30.3917C35.8828 29.6766 47.6589 27.1682 47.6589 27.1682L56.9374 23.9447C56.9374 23.9447 59.7965 20.7211 61.9327 17.8497C64.0688 14.9782 68.352 15.7043 69.4256 13.1849C70.4991 10.6765 68.0015 7.45301 64.0688 7.08995C60.1471 6.72689 55.5023 3.86644 53.7167 3.15132C53.1252 2.90928 51.7011 2.23817 50.0689 1.44604C49.5759 1.94112 46.8482 4.65856 45.8733 5.30767C44.8107 6.02278 41.2395 5.30767 37.6683 5.30767Z" fill="white" stroke="#C9AA4D" stroke-width="1.5" stroke-miterlimit="10"/>
</svg>
