<svg width="103" height="38" viewBox="0 0 103 38" fill="none" xmlns="http://www.w3.org/2000/svg">
<path d="M87.5454 15.6353C84.6315 16.0423 82.5501 12.5328 80.4031 12.2907C78.2669 12.0487 73.9837 11.3336 73.2608 12.2907C72.5487 13.2479 65.1763 15.6353 64.4533 16.3504C63.7412 17.0655 57.5519 16.8235 55.6459 15.1512C53.7398 13.4789 50.1686 11.3226 49.2265 10.8495C48.2844 10.3764 40.189 10.8495 38.283 11.0915C36.3769 11.3336 30.6695 6.78985 28.5334 6.07474C26.3973 5.35962 24.9622 3.44531 20.679 3.44531C16.3958 3.44531 12.1126 2.01508 12.1126 2.01508L1.83722 1.53101C1.94676 2.48816 2.36302 3.3243 2.36302 3.3243C2.36302 3.3243 10.6885 8.70416 12.3535 9.17724C14.0186 9.65031 14.7307 12.0487 14.7307 13.952C14.7307 15.8553 17.3489 15.3822 20.208 15.6243C23.0671 15.8663 23.7791 18.4957 21.6321 20.8831C19.485 23.2705 26.1563 23.9856 28.0514 26.8571C29.9465 29.7285 38.754 31.1588 40.6601 32.1159C42.5662 33.0731 44.2312 31.4008 47.0794 33.7882C49.9385 36.1756 52.7867 36.6597 52.7867 36.6597L62.7773 35.9445C62.7773 35.9445 63.2483 35.4715 67.3015 32.842C71.3437 30.2126 80.1511 27.3412 80.1511 27.3412C80.1511 27.3412 95.6189 28.5403 96.802 27.3412C97.9961 26.142 107.275 26.142 98.4671 21.8403C91.9272 18.6498 89.9883 16.7685 90.0979 15.4262C89.7035 15.4372 88.86 15.4592 87.5454 15.6353Z" fill="white" stroke="#C9AA4D" stroke-width="1.5" stroke-miterlimit="10"/>
</svg>
