<svg width="63" height="41" viewBox="0 0 63 41" fill="none" xmlns="http://www.w3.org/2000/svg">
<path d="M17.1404 34.6906C18.7507 34.5146 20.8868 36.1208 23.5598 37.375C26.2327 38.6292 36.2342 37.7381 38.9071 39.3443C41.58 40.9506 44.8006 38.9813 45.3264 38.0901C45.8632 37.199 46.4 35.5817 48.3608 33.6124C50.3217 31.6431 51.7458 33.6124 53.0055 31.104C54.2544 28.5956 49.4344 29.4868 46.2247 28.4196C43.015 27.3414 44.0886 25.5481 44.8006 24.1179C45.5126 22.6877 49.6206 22.8637 51.5815 21.9726C53.5423 21.0814 55.8647 21.2574 55.8647 21.2574L59.2496 14.6234C59.2496 14.6234 59.5454 12.6541 57.4093 8.94647C55.2731 5.23887 58.1213 7.63726 60.2684 5.84397C61.9225 4.45775 61.8239 2.37842 61.7034 1.50928C52.7645 3.65462 43.3984 5.87698 40.1668 6.55909C33.386 7.98932 34.098 10.1457 30.8883 11.5759C27.6787 13.0061 12.3314 17.3078 11.2578 19.1011C10.1843 20.8944 11.2578 21.9726 11.2578 26.2742C11.2578 28.2986 7.40181 30.95 3.11859 33.4914L5.90105 33.7995C5.90105 33.7995 15.541 34.8666 17.1404 34.6906Z" fill="white" stroke="#C9AA4D" stroke-width="1.5" stroke-miterlimit="10"/>
</svg>
