<svg width="69" height="26" viewBox="0 0 69 26" fill="none" xmlns="http://www.w3.org/2000/svg">
<path d="M16.6495 20.5623C17.8326 20.8484 27.8888 21.6845 29.9592 23.0597C31.6134 24.1709 35.6885 22.7957 38.0547 22.9387C39.9827 23.0597 41.8121 23.9179 42.4365 24.2479C42.7322 23.8849 43.3019 23.5658 44.3535 23.3018C47.2126 22.5866 53.632 23.6648 57.5537 21.5085C61.4754 19.3631 66.4707 19.3631 66.4707 19.3631L67.2375 14.8304C67.2156 14.8304 67.1937 14.8194 67.1828 14.8194C63.3706 14.1043 52.427 14.3463 50.2909 13.8622C48.1548 13.3782 32.6869 6.21601 31.4929 4.07067C30.2989 1.92532 29.1158 0.0110157 26.2567 1.19921C23.3975 2.3984 13.166 3.58659 13.166 3.58659C13.166 3.58659 9.8358 5.25886 8.64176 8.13032C8.11594 9.39552 5.33346 13.5212 2.14569 17.9109L4.85146 18.2409C4.87337 18.2299 15.4664 20.2763 16.6495 20.5623Z" fill="white" stroke="#C9AA4D" stroke-width="1.5" stroke-miterlimit="10"/>
</svg>
