<svg width="750" height="383" viewBox="0 0 750 383" fill="none" xmlns="http://www.w3.org/2000/svg">
<path d="M8.01558 374.606H218.397L219.821 326.341C219.821 326.341 229.341 310.091 242.19 307.704C255.04 305.316 280.739 305.789 280.739 305.789L291.683 230.757L447.763 230.284L447.292 158.597L473.703 149.399L493.334 142.71L506.304 140.917L509.875 138.651L545.445 137.572L571.977 136.978L577.684 139.487L582.559 139.366L594.926 128.375L602.781 125.272L614.206 122.016L626.881 116.548L632.051 113.413L638.657 112.873L645.525 112.961L655.702 111.531L658.999 104.809L656.918 101.135L657.279 98.8682L650.027 95.6447L653.599 94.5665L652.887 91.343L653.007 88.7136L680.131 87.1623L684.173 85.248L681.434 82.0245L679.769 78.801L692.86 78.2069L746.449 79.098L745.376 72.651C745.376 72.651 748.585 66.732 749.122 66.556C749.659 66.38 745.376 63.7836 745.376 63.7836L737.708 65.4888L720.903 53.2769V48.4361L722.864 46.6428L716.971 44.8495L715.01 35.355L710.014 29.6231L705.906 23.7041C705.906 23.7041 698.764 19.5785 695.554 18.8633C692.345 18.1482 686.988 15.8158 685.914 15.8158C684.841 15.8158 663.786 16.1789 663.786 16.1789C663.786 16.1789 661.113 13.6705 660.04 12.0532C658.966 10.436 656.469 12.0532 656.294 12.5923C656.118 13.1314 647.727 14.0226 645.941 14.2096C644.156 14.3856 634.516 13.3184 634.516 13.3184L627.198 14.3966C627.198 14.3966 607.633 15.2328 603.821 14.5176C600.009 13.8025 589.066 14.0446 586.929 13.5605C584.793 13.0874 569.325 5.91426 568.131 3.76891C566.937 1.62357 565.754 -0.290742 562.895 0.897449C560.036 2.09664 549.805 3.28483 549.805 3.28483C549.805 3.28483 546.474 4.9571 545.28 7.82856C544.086 10.7 531.248 28.3799 528.388 30.2942C525.529 32.2085 518.639 39.1396 509.349 42.0001C500.071 44.8715 492.458 45.5866 492.458 45.5866C492.458 45.5866 458.553 53.827 451.772 55.2682C444.992 56.7094 445.704 58.8548 442.494 60.285C439.284 61.7152 423.937 66.0169 422.863 67.8102C421.79 69.6035 422.863 70.6817 422.863 74.9834C422.863 79.2851 405.38 86.4582 403.594 89.3187C401.809 92.1901 396.452 97.2069 397.887 102.939C399.311 108.671 398.249 110.112 397.526 111.542C396.814 112.972 398.95 112.62 401.447 114.051C403.945 115.481 410.364 116.922 403.945 123.369C397.526 129.816 382.89 142.369 382.89 142.369C382.89 142.369 367.072 152.403 349.227 156.462C331.382 160.522 332.576 164.109 327.811 166.023C323.046 167.937 308.542 172.239 308.542 172.239C308.542 172.239 283.325 176.068 278.56 176.068C273.794 176.068 258.337 176.31 256.19 178.939C254.054 181.569 249.585 184.319 247.087 184.495C244.59 184.671 244.053 187.179 242.092 189.16C240.131 191.129 226.208 206.543 223.173 209.227C220.139 211.911 204.792 217.83 198.186 218.909C191.581 219.987 181.765 222.847 178.917 224.827C176.058 226.797 155.54 247.766 153.043 252.068C150.545 256.37 155.54 260.308 150.183 264.258C144.827 268.196 142.329 272.861 129.841 275.007C129.841 275.007 116.279 279.671 110.922 283.962C105.566 288.264 69.8758 312.996 69.8758 315.141C69.8758 317.286 69.7553 320.752 68.3312 321.775C66.9071 322.798 64.289 322.49 62.7444 323.689C61.1998 324.889 54.5395 331.875 54.5395 331.875L43.0043 342.392C43.0043 342.392 38.4801 343.592 33.9669 343.35C33.9669 343.35 28.7635 344.989 22.7823 349.797C14.3363 356.607 0.0625999 369.27 0.0625999 369.27C0.0625999 369.27 -0.0140819 386.08 2.12205 382.494C4.26914 378.907 8.01558 374.606 8.01558 374.606Z" fill="#C9AA4D"/>
</svg>
