<svg width="288" height="117" viewBox="0 0 288 117" fill="none" xmlns="http://www.w3.org/2000/svg">
<path d="M251.877 6.99028C250.804 6.62722 239.028 4.84494 231.896 4.48188C224.765 4.11882 213.339 5.56004 211.192 7.70539C209.056 9.85074 200.128 7.7054 196.557 6.99028C192.986 6.27517 174.429 5.91211 174.429 5.91211C174.429 5.91211 163.365 7.7054 158.008 8.05746C152.651 8.42051 152.301 6.62722 151.589 4.11882C150.997 2.03948 145.619 1.77544 143.811 1.74243C140.996 3.59073 137.293 5.21899 131.246 6.26416C131.246 6.26416 117.684 10.9289 112.328 15.2196C106.971 19.5213 71.2811 44.2533 71.2811 46.3986C71.2811 48.544 71.1606 52.0095 69.7365 53.0327C68.3124 54.0449 65.6943 53.7478 64.1497 54.947C62.6051 56.1462 55.9448 63.1323 55.9448 63.1323L44.4097 73.65C44.4097 73.65 39.8854 74.8492 35.3722 74.6072C35.3722 74.6072 28.7118 74.8492 24.1876 81.0542C19.6634 87.2592 0.865417 114.522 0.865417 114.522C0.865417 114.522 1.33646 117.393 3.48355 113.807C5.61968 110.22 9.37708 105.918 9.37708 105.918H219.759L221.183 57.6535C221.183 57.6535 230.702 41.4038 243.552 39.0164C256.402 36.6291 282.101 37.1021 282.101 37.1021L286.592 6.29716C282.933 6.39618 270.029 6.78124 267.586 7.70539C264.727 8.78356 252.951 7.34234 251.877 6.99028Z" fill="white" stroke="#C9AA4D" stroke-width="1.5" stroke-miterlimit="10"/>
</svg>
