<svg width="282" height="115" viewBox="0 0 282 115" fill="none" xmlns="http://www.w3.org/2000/svg">
<path d="M270.323 1.28005L264.254 0.916992L255.687 2.71028L249.268 1.63211L245.346 5.9338C245.346 5.9338 239.277 7.72709 236.78 6.29686C234.282 4.86663 233.57 3.78845 229.638 3.42539C225.716 3.06234 225.354 8.4422 223.218 9.52038C221.082 10.5985 214.652 10.9506 213.578 12.0288C212.505 13.107 206.085 11.3137 201.802 10.9506C197.519 10.5876 196.445 12.0288 196.445 12.0288C196.445 12.0288 193.236 13.459 190.026 12.0288C186.816 10.5985 182.533 11.6657 181.109 14.5372C179.685 17.4086 181.109 20.2691 181.47 22.7775C181.832 25.2859 170.768 23.4926 164.338 25.2859C157.918 27.0792 161.478 28.5094 158.63 27.4313C155.782 26.3531 152.923 25.638 151.488 27.0682C150.053 28.4984 141.848 29.5766 140.062 29.2135C138.277 28.8505 136.491 27.4203 133.643 27.4203C130.784 27.4203 127.936 31.3589 127.936 31.3589C127.936 31.3589 121.516 33.5042 116.51 33.8673C112.797 34.1313 109.872 32.019 108.612 30.9188C102.39 33.9883 93.7795 37.6409 84.6215 39.7202C66.7766 43.7799 67.9706 47.3665 63.2054 49.2808C58.4402 51.1951 43.9364 55.4968 43.9364 55.4968C43.9364 55.4968 53.6859 62.901 54.4089 65.0573C55.121 67.2026 51.9113 67.5657 49.4137 67.2026C46.916 66.8396 35.852 70.0741 33.7158 71.1413C31.5797 72.2195 25.5109 80.0967 20.8662 83.3312C16.2214 86.5548 14.7974 90.1413 9.8021 92.2867C4.80684 94.432 1.23566 98.0186 1.23566 98.0186C1.23566 98.0186 3.02124 104.114 3.37179 105.192C3.73328 106.27 4.44534 113.432 4.44534 113.432L27.0226 114.18L27.0445 114.026L183.125 113.553L182.654 41.8656L209.065 32.6681L228.695 25.979L241.666 24.1857L245.237 21.9194L280.806 20.8412H280.839L279.974 9.13531L270.323 1.28005Z" fill="white" stroke="#C9AA4D" stroke-width="1.5" stroke-miterlimit="10"/>
</svg>
