<svg width="94" height="35" viewBox="0 0 94 35" fill="none" xmlns="http://www.w3.org/2000/svg">
<path d="M24.5647 8.50852C20.643 10.6539 14.2127 9.5867 11.3646 10.3018C10.302 10.5659 9.73233 10.8849 9.44751 11.248C9.58992 11.325 9.68855 11.38 9.68855 11.38C9.68855 11.38 9.58992 11.325 9.44751 11.248C8.9436 11.8641 9.22841 12.6232 9.22841 13.5253C9.22841 14.9556 5.30669 15.3186 2.44756 16.0337C0.979654 16.4078 0.738698 17.53 0.848243 18.5421L11.1236 19.0262C11.1236 19.0262 15.4067 20.4564 19.69 20.4564C23.9732 20.4564 25.3973 22.3708 27.5444 23.0859C29.6805 23.801 35.3987 28.3447 37.2939 28.1027C39.2 27.8606 47.2845 27.3876 48.2375 27.8606C49.1905 28.3337 52.7617 30.4901 54.6568 32.1623C56.5629 33.8346 62.7412 34.0766 63.4642 33.3615C64.1763 32.6464 71.5486 30.259 72.2716 29.3019C72.9837 28.3447 77.2669 29.0598 79.414 29.3019C81.5501 29.5439 83.6315 33.0535 86.5564 32.6464C87.8819 32.4594 88.7144 32.4374 89.1416 32.4484C89.1854 31.9863 89.4593 31.5792 89.8865 31.2162C91.5516 29.7859 90.3576 26.4414 87.2684 25.7153C84.1792 25.0002 90.1275 24.5161 91.3106 23.5699C92.5046 22.6128 90.5986 20.2254 87.9805 19.7413C85.3623 19.2572 84.8913 17.3539 87.7395 16.3968C90.5986 15.4396 96.5469 13.0523 89.4045 10.8959C82.2622 8.75056 81.0791 10.1808 78.702 11.369C76.3249 12.5682 72.7537 16.3858 71.0886 14.9556C69.4235 13.5253 70.8476 10.4118 69.1825 9.45468C67.5174 8.49752 62.0402 8.49752 61.0981 7.06729C60.3532 5.95611 59.8055 2.7656 59.5973 1.39038L57.5817 1.68743C57.5817 1.68743 38.1922 2.51256 34.2595 1.81945L33.4927 6.35218C33.4817 6.35218 28.4865 6.35218 24.5647 8.50852Z" fill="white" stroke="#C9AA4D" stroke-width="1.5" stroke-miterlimit="10"/>
</svg>
