<svg width="181" height="108" viewBox="0 0 181 108" fill="none" xmlns="http://www.w3.org/2000/svg">
<path d="M128.361 51.2248C127.999 50.1466 126.225 44.0516 126.225 44.0516C126.225 44.0516 129.796 40.465 134.791 38.3197C139.786 36.1743 141.21 32.5878 145.855 29.3642C150.5 26.1407 156.558 18.2525 158.705 17.1743C160.841 16.0961 171.905 12.8726 174.403 13.2357C176.9 13.5987 180.11 13.2357 179.398 11.0903C178.686 8.94496 168.925 1.52979 168.925 1.52979C168.925 1.52979 143.708 5.3584 138.943 5.3584C134.189 5.3584 118.721 5.60044 116.574 8.22986C114.438 10.8593 109.968 13.6097 107.471 13.7858C104.973 13.9618 104.436 16.4702 102.475 18.4505C100.514 20.4198 86.5912 35.8333 83.5568 38.5177C80.5224 41.2022 65.1751 47.1211 58.5695 48.1993C51.9639 49.2775 42.1487 52.1379 39.3005 54.1182C36.4523 56.0985 15.9235 77.0569 13.4259 81.3586C10.9283 85.6603 15.9235 89.5989 10.5668 93.5486C7.80624 95.5839 5.7906 97.8062 2.78906 99.7756C4.60751 99.8086 9.97524 100.062 10.5668 102.152C11.2788 104.66 11.6403 106.454 16.9861 106.091C22.3429 105.728 33.407 103.945 33.407 103.945C33.407 103.945 51.9639 104.308 55.5351 105.023C59.1063 105.739 68.0233 107.895 70.1704 105.739C72.3065 103.593 83.7321 102.152 90.8744 102.515C98.0168 102.878 109.793 104.66 110.855 105.023C111.929 105.386 123.705 106.817 126.553 105.739C128.996 104.814 141.901 104.418 145.559 104.33L151.99 60.2572L129.412 59.5091C129.434 59.4651 128.722 52.3029 128.361 51.2248Z" fill="white" stroke="#C9AA4D" stroke-width="1.5" stroke-miterlimit="10"/>
</svg>
