<svg width="60" height="22" viewBox="0 0 60 22" fill="none" xmlns="http://www.w3.org/2000/svg">
<path d="M12.2632 18.5687C15.5605 18.9318 17.7076 18.3927 19.2193 18.4807C20.7311 18.5687 24.7514 19.1958 26.2631 19.5589C27.6762 19.889 31.6089 19.1408 32.1676 19.0308C32.1128 18.7338 32.0909 18.4367 32.1457 18.1177C32.5072 16.3244 34.2818 15.6093 36.0674 15.9723C37.853 16.3354 41.7747 20.9891 43.5603 20.274C45.3459 19.5589 50.3411 16.3354 50.3411 16.3354C50.3411 16.3354 49.9249 15.4882 49.8153 14.5421L49.5853 14.5311L49.8153 14.5421C49.7058 13.5299 49.9468 12.4077 51.4147 12.0337C54.2738 11.3186 58.1956 10.9555 58.1956 9.52529C58.1956 8.62314 57.9108 7.86402 58.4147 7.24792C57.7903 6.92887 55.9609 6.05973 54.0329 5.93871C51.6667 5.79569 47.6025 7.17091 45.9374 6.05973C43.878 4.68451 33.8108 3.84838 32.6277 3.56233C31.4446 3.27628 20.8515 1.22995 20.8515 1.22995L18.1458 0.899902C14.0816 6.4888 9.34929 12.5068 7.74993 13.5849C6.63257 14.3331 4.86891 15.8623 2.60132 17.6116L3.05042 17.6666C3.97061 17.7656 8.96588 18.2167 12.2632 18.5687Z" fill="white" stroke="#C9AA4D" stroke-width="1.5" stroke-miterlimit="10"/>
</svg>
