<svg width="125" height="79" viewBox="0 0 125 79" fill="none" xmlns="http://www.w3.org/2000/svg">
<path d="M121.089 58.8159L110.025 55.7684L93.2538 43.5785V38.7377L95.2146 36.9444L89.3211 35.1511L87.3603 25.6566L82.365 19.9247L78.257 14.0057C78.257 14.0057 71.1147 9.88005 67.905 9.16493C64.6953 8.44982 59.3386 6.11744 58.265 6.11744C57.1915 6.11744 36.1369 6.4805 36.1369 6.4805C36.1369 6.4805 33.464 3.9721 32.3904 2.35483C31.3169 0.737575 28.8193 2.35484 28.644 2.89392C28.4687 3.43301 20.0776 4.32415 18.292 4.51118C16.5064 4.69821 6.86641 3.62004 6.86641 3.62004L1.56439 4.40116C1.77253 5.77639 2.32025 8.9559 3.06516 10.0781C4.0182 11.5083 9.48451 11.5083 11.1496 12.4655C12.8147 13.4226 11.3906 16.5251 13.0557 17.9663C14.7208 19.3966 18.292 15.579 20.6691 14.3798C23.0462 13.1806 24.2403 11.7503 31.3717 13.9067C38.514 16.052 32.5657 18.4504 29.7066 19.4076C26.8474 20.3647 27.3295 22.279 29.9476 22.7521C32.5657 23.2252 34.4718 25.6236 33.2778 26.5807C32.0837 27.5379 26.1354 28.011 29.2355 28.7261C32.3247 29.4412 33.5188 32.7857 31.8537 34.227C31.4265 34.601 31.1416 34.9971 31.1088 35.4592C31.3169 35.4592 31.4374 35.4702 31.4374 35.4702C31.4374 35.4702 31.3279 35.4592 31.1088 35.4592C30.9883 36.8014 32.9381 38.6717 39.478 41.8732C48.2854 46.1749 39.007 46.1749 37.813 47.3741C36.6189 48.5733 21.1621 47.3741 21.1621 47.3741C21.1621 47.3741 12.3546 50.2455 8.31242 52.875C4.2702 55.5044 3.78819 55.9775 3.78819 55.9775L6.40627 58.8489L14.0197 63.3927L22.3452 67.6943C22.3452 67.6943 36.8599 67.2213 37.5719 68.1674C38.284 69.1246 36.1479 71.512 36.8599 72.9422C37.4186 74.0754 40.0257 76.9578 41.1102 78.135L52.4482 77.4859L56.4904 75.5716L53.7518 72.3481L52.0867 69.1246L65.1773 68.5305L118.767 69.4216L117.693 62.9746C117.693 62.9746 123.587 61.1813 124.113 61.0053C124.66 60.7852 121.089 58.8159 121.089 58.8159Z" fill="white" stroke="#C9AA4D" stroke-width="1.5" stroke-miterlimit="10"/>
</svg>
