<svg width="77" height="77" viewBox="0 0 77 77" fill="none" xmlns="http://www.w3.org/2000/svg">
<g clip-path="url(#clip0_138_848)">
<path d="M38.3386 16.361L37.9249 16.1125C31.0317 11.9622 19.7279 5.24381 18.7183 4.89589L18.9087 4.34086V3.27222C19.1817 3.27222 19.8106 3.27222 38.3635 14.4474L57.6279 3.44618L58.4472 4.8876L38.3386 16.361Z" fill="#C9AA4D"/>
<path d="M18.7928 72.916V72.0876L18.6025 71.2841C19.612 70.9361 30.949 64.2592 37.8504 60.1338L38.2642 59.8853L58.3396 71.4332L57.5121 72.8663L38.2807 61.8071C19.8189 72.8415 19.0659 72.916 18.7928 72.916Z" fill="#C9AA4D"/>
<path d="M38.3386 16.361L37.9249 16.1125C31.0317 11.9622 19.7279 5.24381 18.7183 4.89589L18.9087 4.34086V3.27222C19.1817 3.27222 19.8106 3.27222 38.3635 14.4474L57.6279 3.44618L58.4472 4.8876L38.3386 16.361Z" fill="#C9AA4D"/>
<path d="M18.7928 72.916V72.0876L18.6025 71.2841C19.612 70.9361 30.949 64.2592 37.8504 60.1338L38.2642 59.8853L58.3396 71.4332L57.5121 72.8663L38.2807 61.8071C19.8189 72.8415 19.0659 72.916 18.7928 72.916Z" fill="#C9AA4D"/>
<path d="M5.22157 57.8473L4.66714 57.6567H3.59137C3.59137 57.3834 3.59137 56.7538 14.7545 38.181L3.77342 18.8875L5.21329 18.0674L16.6826 38.1976L16.4344 38.6118C12.2802 45.5124 5.56912 56.8366 5.22157 57.8473Z" fill="#C9AA4D"/>
<path d="M71.5384 57.9632C71.1908 56.9526 64.5211 45.6035 60.4 38.6946L60.1518 38.2804L71.6873 18.1833L73.1189 19.0118L62.0716 38.2638C73.1686 56.8697 73.1686 57.5076 73.1686 57.7727H71.5135H72.341L71.5384 57.9632Z" fill="#C9AA4D"/>
<path d="M1.01784 28.5716L0.761311 28.0414L0 27.2876C0.190328 27.097 0.637185 26.6497 21.6477 21.4225L27.5065 0L29.1036 0.439053L22.9883 22.7894L22.5166 22.9053C14.7132 24.8521 1.97775 28.0994 1.01784 28.5716Z" fill="#C9AA4D"/>
<path d="M49.1128 76.619L48.5253 76.0308L47.8219 75.6001C48.2936 74.6391 51.5871 61.8983 53.5566 54.0947L53.6724 53.6226L76.0235 47.5835L76.4538 49.1823L55.0378 54.9728C49.75 75.9811 49.3031 76.4285 49.1128 76.619Z" fill="#C9AA4D"/>
<path d="M27.581 76.5858C27.3906 76.3953 26.9438 75.948 21.7222 54.9148L0.330994 49.0497L0.769575 47.4509L23.0958 53.5728L23.2117 54.045C25.1481 61.8568 28.4002 74.6142 28.8719 75.5752L28.3423 75.832L27.581 76.5858Z" fill="#C9AA4D"/>
<path d="M75.8497 28.7042C74.8898 28.232 62.1627 24.935 54.3675 22.9634L53.8958 22.8474L47.8633 0.472273L49.4604 0.0415039L55.2447 21.4806C76.2387 26.7823 76.6855 27.2297 76.8759 27.4202L76.2883 28.0084L75.8497 28.7042Z" fill="#C9AA4D"/>
<path d="M48.757 29.3171L28.1106 29.284L28.1685 28.4059C28.5409 22.665 32.364 17.6863 38.1566 15.4165L38.4628 15.3005L38.769 15.4248C44.5533 17.7195 48.3598 22.7065 48.7156 28.4473L48.757 29.3171ZM29.898 27.6272L46.9613 27.6603C46.349 23.0295 43.163 19.0532 38.4545 17.0733C33.7294 19.0366 30.5352 23.0047 29.898 27.6272Z" fill="#C9AA4D"/>
<path d="M38.3717 61.4924L38.0656 61.3764C32.2813 59.0817 28.4747 54.0948 28.1189 48.3539L28.0692 47.4758L48.7156 47.509L48.6577 48.3871C48.2853 54.1279 44.4622 59.1066 38.6696 61.3764L38.3717 61.4924ZM29.8649 49.1326C30.4773 53.7551 33.6632 57.7315 38.38 59.7113C43.0968 57.748 46.2993 53.78 46.9282 49.1575L29.8649 49.1326Z" fill="#C9AA4D"/>
<path d="M29.3105 48.7101L28.4333 48.6521C22.6987 48.2794 17.7253 44.4521 15.458 38.6533L15.3421 38.3468L15.458 38.0403C17.7502 32.2498 22.7318 28.4391 28.4664 28.0829L29.3436 28.0332L29.3105 48.7101ZM17.1213 38.3551C19.0825 43.077 23.0462 46.2829 27.6638 46.9125L27.6969 29.8308C23.0711 30.4439 19.099 33.6332 17.1213 38.3551Z" fill="#C9AA4D"/>
<path d="M47.4827 48.7431L47.5158 28.0745L48.3929 28.1325C54.1276 28.5052 59.1009 32.3325 61.3683 38.1313L61.4842 38.4378L61.36 38.7443C59.0678 44.5348 54.0862 48.3455 48.3516 48.7017L47.4827 48.7431ZM49.1708 29.8721L49.1377 46.9538C53.7552 46.3407 57.7273 43.1514 59.705 38.4295C57.7521 33.7076 53.78 30.5017 49.1708 29.8721Z" fill="#C9AA4D"/>
<path d="M24.6847 39.2415L24.1054 38.5787C20.3154 34.2628 19.5045 28.0332 21.9953 22.3255L22.1277 22.0273L22.4256 21.8947C28.1354 19.4261 34.3583 20.2545 38.6614 24.0651L39.3234 24.6533L24.6847 39.2415ZM23.3855 23.2864C21.4326 28.0166 21.9787 33.0864 24.7923 36.7977L36.8822 24.7444C33.175 21.9113 28.1106 21.3563 23.3855 23.2864Z" fill="#C9AA4D"/>
<path d="M47.7888 56.2899C44.2305 56.2899 40.8377 55.0722 38.1731 52.7112L37.5111 52.1231L52.1415 37.5349L52.7208 38.1976C56.5108 42.5136 57.3217 48.7432 54.8309 54.4509L54.6985 54.7491L54.4006 54.8817C52.2325 55.826 49.9817 56.2899 47.7888 56.2899ZM39.9523 52.032C43.6512 54.8651 48.7156 55.4284 53.449 53.4899C55.4019 48.7598 54.8558 43.6899 52.0422 39.9787L39.9523 52.032Z" fill="#C9AA4D"/>
<path d="M29.0374 56.257C26.8279 56.257 24.5606 55.7848 22.3676 54.8321L22.0697 54.6996L21.9373 54.4013C19.4713 48.6854 20.2989 42.4558 24.1054 38.1481L24.693 37.4854L39.2654 52.1315L38.6034 52.7114C35.9471 55.0558 32.5709 56.257 29.0374 56.257ZM23.3276 53.4404C28.0527 55.3954 33.117 54.8487 36.8243 52.0321L24.784 39.9291C21.9539 43.6321 21.3995 48.7019 23.3276 53.4404Z" fill="#C9AA4D"/>
<path d="M52.1416 39.291L37.5608 24.6532L38.2228 24.0733C42.5424 20.2792 48.757 19.4674 54.4586 21.9609L54.7565 22.0934L54.8889 22.3916C57.3549 28.1076 56.5274 34.3372 52.7208 38.6449L52.1416 39.291ZM40.002 24.7526L52.0423 36.8555C54.8723 33.1526 55.4351 28.0827 53.4987 23.3443C48.7736 21.3893 43.7092 21.936 40.002 24.7526Z" fill="#C9AA4D"/>
<path d="M51.403 7.69495L50.2358 8.86963L67.7373 26.296L68.9044 25.1213L51.403 7.69495Z" fill="#C9AA4D"/>
<path d="M26.1773 7.65128L8.61414 25.0159L9.77712 26.1947L27.3403 8.8301L26.1773 7.65128Z" fill="#C9AA4D"/>
<path d="M68.3311 50.8889L49.6385 68.6824L50.779 69.8831L69.4716 52.0896L68.3311 50.8889Z" fill="#C9AA4D"/>
<path d="M9.12169 50.7978L7.94861 51.9666L26.0675 70.1924L27.2406 69.0236L9.12169 50.7978Z" fill="#C9AA4D"/>
<path d="M50.3108 7.8147L25.6261 7.87524L25.6302 9.53205L50.3148 9.47151L50.3108 7.8147Z" fill="#C9AA4D"/>
<path d="M7.75678 25.7084L7.60004 50.4197L9.25506 50.4302L9.41181 25.719L7.75678 25.7084Z" fill="#C9AA4D"/>
<path d="M68.1181 25.8716L68.0669 52.1733L69.7219 52.1766L69.7731 25.8748L68.1181 25.8716Z" fill="#C9AA4D"/>
<path d="M50.7159 68.3505L27.1567 68.4199L27.1615 70.0767L50.7208 70.0073L50.7159 68.3505Z" fill="#C9AA4D"/>
<path d="M47.8964 18.6061C47.2509 18.6061 46.6386 18.3492 46.1917 17.8936C45.7366 17.438 45.4883 16.8333 45.4883 16.1871C45.4883 15.541 45.7449 14.9362 46.2 14.4806C46.6551 14.025 47.2923 13.7516 47.9047 13.7765C48.5501 13.7765 49.1542 14.0333 49.6094 14.4889C50.0645 14.9445 50.3127 15.5492 50.3127 16.1954H49.4852H50.3127C50.3127 16.8416 50.0562 17.4463 49.6011 17.9019C49.1459 18.3575 48.5419 18.6061 47.8964 18.6061ZM47.8964 15.4333C47.6978 15.4333 47.5075 15.5078 47.3585 15.6569C47.2178 15.7978 47.1351 15.9883 47.1351 16.1954C47.1351 16.3942 47.2096 16.5847 47.3585 16.7339C47.4992 16.8747 47.6895 16.9575 47.8964 16.9575C48.095 16.9575 48.2853 16.883 48.4343 16.7339C48.575 16.593 48.6577 16.4025 48.6577 16.1954C48.6577 15.9966 48.5832 15.8061 48.4343 15.6569C48.2936 15.5161 48.1033 15.4416 47.8964 15.4333Z" fill="#C9AA4D"/>
<path d="M29.7739 18.5728C28.4416 18.5728 27.3576 17.4875 27.3658 16.1538C27.3658 15.5077 27.6224 14.9029 28.0775 14.4473C28.5326 13.9917 29.1367 13.7432 29.7822 13.7432C29.7822 13.7432 29.7822 13.7432 29.7904 13.7432C31.1227 13.7432 32.1985 14.8284 32.1985 16.1621C32.1902 17.4958 31.1062 18.5728 29.7739 18.5728ZM29.7739 15.4083C29.5753 15.4083 29.385 15.4828 29.236 15.6319C29.0953 15.7728 29.0126 15.9633 29.0126 16.1704C29.0126 16.3692 29.0871 16.5597 29.236 16.7088C29.3767 16.8497 29.567 16.9325 29.7739 16.9325C29.9725 16.9325 30.1628 16.858 30.3118 16.7088C30.4525 16.568 30.5352 16.3775 30.5352 16.1704C30.5352 15.7479 30.1959 15.4083 29.7739 15.4083Z" fill="#C9AA4D"/>
<path d="M47.8219 63.2817C47.8219 63.2817 47.8137 63.2817 47.8219 63.2817C47.1765 63.2817 46.5724 63.0249 46.1173 62.5693C45.6621 62.1137 45.4139 61.509 45.4139 60.8628C45.4139 60.2166 45.6704 59.6119 46.1255 59.1563C46.5807 58.7007 47.1848 58.4356 47.8302 58.4521C49.1625 58.4521 50.2383 59.5374 50.2383 60.8711C50.23 62.1965 49.146 63.2817 47.8219 63.2817ZM47.8219 60.109C47.6233 60.109 47.433 60.1835 47.2841 60.3326C47.1434 60.4735 47.0606 60.664 47.0606 60.8711C47.0606 61.0699 47.1351 61.2604 47.2841 61.4095C47.4247 61.5504 47.6151 61.6332 47.8219 61.6332C48.0205 61.6332 48.2109 61.5587 48.3598 61.4095C48.5005 61.2687 48.5832 61.0782 48.5832 60.8711C48.575 60.4486 48.2357 60.109 47.8219 60.109Z" fill="#C9AA4D"/>
<path d="M29.6994 63.2485C28.3671 63.2485 27.2831 62.1633 27.2914 60.8296C27.2914 59.4959 28.3754 58.4189 29.6994 58.4189C29.6994 58.4189 29.6994 58.4189 29.7077 58.4189C30.3532 58.4189 30.9572 58.6758 31.4124 59.1314C31.8675 59.587 32.1158 60.1917 32.1158 60.8379C32.1158 61.484 31.8592 62.0888 31.4041 62.5444C30.949 63 30.3449 63.2485 29.6994 63.2485ZM29.6994 60.0758C29.2857 60.0758 28.9464 60.4154 28.9464 60.8296C28.9464 61.2438 29.2857 61.5835 29.6994 61.5917C29.898 61.5917 30.0884 61.5172 30.2373 61.3681C30.378 61.2272 30.4607 61.0367 30.4607 60.8296C30.4607 60.6308 30.3863 60.4403 30.2373 60.2911C30.0884 60.1586 29.9063 60.0758 29.6994 60.0758Z" fill="#C9AA4D"/>
<path d="M16.5006 31.8188C15.8551 31.8188 15.251 31.562 14.7959 31.1064C14.3408 30.6508 14.0925 30.0461 14.0925 29.3999C14.0925 28.0745 15.1766 26.9893 16.5006 26.9893C16.5006 26.9893 16.5006 26.9893 16.5089 26.9893C17.8412 26.9893 18.9169 28.0745 18.9169 29.4082C18.9087 30.7419 17.8329 31.8188 16.5006 31.8188ZM16.5006 28.6461C16.302 28.6461 16.1117 28.7206 15.971 28.8697C15.8303 29.0106 15.7476 29.2011 15.7476 29.4082C15.7476 29.607 15.822 29.7975 15.971 29.9467C16.1117 30.0875 16.302 30.1703 16.5089 30.1703C16.9226 30.1703 17.2619 29.8307 17.2619 29.4165C17.2619 28.9857 16.9226 28.6461 16.5006 28.6461Z" fill="#C9AA4D"/>
<path d="M16.4675 49.9609C15.1352 49.9609 14.0512 48.8757 14.0594 47.542C14.0594 46.8958 14.316 46.2911 14.7711 45.8355C15.2262 45.3799 15.8303 45.1313 16.4758 45.1313C16.4758 45.1313 16.4758 45.1313 16.484 45.1313C17.1295 45.1313 17.7336 45.3882 18.1887 45.8438C18.6438 46.2994 18.8921 46.9041 18.8921 47.5503C18.8921 48.1964 18.6356 48.8012 18.1804 49.2568C17.717 49.7124 17.113 49.9609 16.4675 49.9609ZM16.4675 46.7882C16.2689 46.7882 16.0786 46.8627 15.9296 47.0118C15.7889 47.1526 15.7062 47.3432 15.7062 47.5503C15.7062 47.9645 16.0455 48.3041 16.4592 48.3124C16.6578 48.3124 16.8481 48.2379 16.9971 48.0887C17.1378 47.9479 17.2205 47.7574 17.2205 47.5503C17.2205 47.3515 17.1461 47.1609 16.9971 47.0118C16.8647 46.871 16.6744 46.7882 16.4675 46.7882Z" fill="#C9AA4D"/>
<path d="M61.1283 31.8936C61.1283 31.8936 61.12 31.8936 61.1283 31.8936C59.796 31.8936 58.712 30.8083 58.7203 29.4746C58.7203 28.8285 58.9768 28.2237 59.4319 27.7681C59.8871 27.3125 60.4911 27.064 61.1366 27.064C61.1366 27.064 61.1366 27.064 61.1449 27.064C61.7903 27.064 62.3944 27.3208 62.8495 27.7764C63.3047 28.232 63.5529 28.8367 63.5529 29.4829C63.5529 30.1291 63.2964 30.7338 62.8413 31.1894C62.3696 31.645 61.7655 31.8936 61.1283 31.8936ZM61.1283 28.7291C60.9297 28.7291 60.7394 28.8036 60.5904 28.9527C60.4498 29.0936 60.367 29.2841 60.367 29.4912C60.367 29.9054 60.7063 30.245 61.12 30.2533C61.3186 30.2533 61.509 30.1788 61.6496 30.0296C61.7903 29.8888 61.8731 29.6983 61.8731 29.4912C61.8731 29.2924 61.7986 29.1018 61.6496 28.9527C61.5172 28.8036 61.3269 28.7291 61.1283 28.7291Z" fill="#C9AA4D"/>
<path d="M61.0952 50.0356C60.4498 50.0356 59.8374 49.7788 59.3823 49.3232C58.9271 48.8676 58.6789 48.2629 58.6789 47.6167C58.6789 46.2913 59.7629 45.2061 61.087 45.2061C62.4192 45.2061 63.495 46.2913 63.495 47.625C63.495 48.2711 63.2385 48.8759 62.7834 49.3315C62.3448 49.7871 61.7407 50.0356 61.0952 50.0356ZM61.0952 46.8629C60.6815 46.8629 60.3422 47.2025 60.3339 47.6167C60.3339 47.8155 60.4084 48.0061 60.5573 48.1552C60.698 48.296 60.8884 48.3788 61.0952 48.3788C61.2938 48.3788 61.4842 48.3043 61.6248 48.1552C61.7655 48.0143 61.8483 47.8238 61.8483 47.6167C61.8483 47.2108 61.509 46.8629 61.0952 46.8629Z" fill="#C9AA4D"/>
<path d="M64.7363 61.9477C63.164 61.9477 61.5917 61.6412 60.0939 61.0282L60.7228 59.4956C63.3378 60.5725 66.2092 60.556 68.8159 59.4708C71.4226 58.3773 73.45 56.3394 74.5175 53.7216C75.5932 51.1039 75.5767 48.2293 74.4926 45.6199C73.4003 43.0104 71.3646 40.9808 68.7497 39.9122L69.3786 38.3796C72.399 39.6222 74.7574 41.9666 76.0235 44.982C77.2814 47.9974 77.2979 51.3276 76.0566 54.3512C74.8154 57.3749 72.4735 59.7359 69.4614 61.0033C67.9305 61.6329 66.3334 61.9477 64.7363 61.9477Z" fill="#C9AA4D"/>
<path d="M12.7189 61.8566C7.8862 61.8566 3.30179 58.9737 1.37368 54.2187C-1.16678 47.9643 1.85364 40.8069 8.10136 38.272L8.72199 39.8045C3.31834 41.9998 0.711673 48.188 2.90458 53.5891C5.09749 58.9986 11.279 61.6081 16.6827 59.4128L17.3033 60.9453C15.7972 61.5666 14.2498 61.8566 12.7189 61.8566Z" fill="#C9AA4D"/>
<path d="M69.3786 39.117L68.758 37.5845C71.3729 36.5241 73.4252 34.5028 74.5175 31.8933C75.6181 29.2922 75.6346 26.4093 74.5754 23.7916C72.3825 18.3821 66.201 15.7726 60.7973 17.9679L60.1767 16.4354C66.4244 13.9004 73.5741 16.9158 76.1063 23.1703C78.6385 29.4247 75.6263 36.5738 69.3786 39.117Z" fill="#C9AA4D"/>
<path d="M8.10135 39.0093C5.08093 37.7667 2.72252 35.4224 1.45642 32.407C0.198606 29.3916 0.182056 26.0614 1.42332 23.0377C3.98034 16.7916 11.1383 13.7928 17.3778 16.3525L16.7488 17.8851C11.3535 15.6732 5.16368 18.2579 2.95422 23.659C1.87846 26.2768 1.89501 29.1514 2.97905 31.7608C4.07136 34.3703 6.10704 36.3999 8.72198 37.4685L8.10135 39.0093Z" fill="#C9AA4D"/>
<path d="M27.7382 76.9668C26.1659 76.9668 24.5937 76.6603 23.0959 76.0473C16.8564 73.4875 13.8608 66.3218 16.4261 60.0757L17.957 60.7053C15.7476 66.1065 18.3294 72.3029 23.7248 74.5147C26.3397 75.5917 29.2112 75.5751 31.8178 74.4899C34.4245 73.3964 36.4519 71.3585 37.5194 68.7408L39.0503 69.3704C37.809 72.394 35.4672 74.755 32.455 76.0224C30.9407 76.652 29.3353 76.9668 27.7382 76.9668Z" fill="#C9AA4D"/>
<path d="M16.5006 17.2308C13.9602 10.9763 16.9806 3.81892 23.2283 1.28401C29.476 -1.25918 36.6257 1.76449 39.1579 8.01893L37.627 8.64023C35.4341 3.23904 29.2526 0.621292 23.8489 2.81656C21.234 3.87691 19.1818 5.89822 18.0895 8.50768C16.9889 11.1089 16.9723 13.9917 18.0315 16.6095L16.5006 17.2308Z" fill="#C9AA4D"/>
<path d="M49.659 77.0001C44.8264 77.0001 40.2419 74.1173 38.3138 69.3622L39.8447 68.7409C42.0376 74.1504 48.2192 76.7599 53.6228 74.5646C59.0265 72.3693 61.6331 66.1812 59.4402 60.7717L60.9711 60.1504C63.5116 66.4048 60.4912 73.5622 54.2435 76.0971C52.7457 76.7102 51.1899 77.0001 49.659 77.0001Z" fill="#C9AA4D"/>
<path d="M61.0456 17.3137L59.5147 16.6841C60.5904 14.0663 60.5739 11.1918 59.4898 8.58232C58.3975 5.97286 56.3619 3.94327 53.7469 2.87463C48.3515 0.662797 42.1617 3.24741 39.9523 8.6486L38.4214 8.01901C40.9784 1.77286 48.1364 -1.22596 54.3758 1.34209C57.3962 2.58469 59.7547 4.92907 61.0207 7.94445C62.2786 10.9598 62.2868 14.29 61.0456 17.3137Z" fill="#C9AA4D"/>
</g>
<defs>
<clipPath id="clip0_138_848">
<rect width="77" height="77" fill="white"/>
</clipPath>
</defs>
</svg>
