<svg width="77" height="77" viewBox="0 0 77 77" fill="none" xmlns="http://www.w3.org/2000/svg">
<g clip-path="url(#clip0_138_805)">
<path d="M38.5039 24.9225C31.651 24.9225 26.0815 19.3453 26.0815 12.5002C26.0815 5.64724 37.6949 0.365593 38.185 0.147793L38.5039 0L38.8228 0.140014C39.3207 0.357814 50.9263 5.63946 50.9263 12.4924C50.9263 19.3453 45.349 24.9225 38.5039 24.9225ZM38.5039 1.71128C36.6759 2.59026 27.6373 7.21073 27.6373 12.5002C27.6373 18.4896 32.5144 23.3668 38.5039 23.3668C44.4934 23.3668 49.3706 18.4896 49.3706 12.5002C49.3706 7.21073 40.3241 2.59026 38.5039 1.71128Z" fill="#C9AA4D"/>
<path d="M39.0173 36.8158H37.9827C31.4176 36.8158 26.0815 31.4719 26.0815 24.9146V11.7222H50.9263V24.9146C50.9263 31.4797 45.5824 36.8158 39.0173 36.8158ZM27.6373 13.2779V24.9146C27.6373 30.6241 32.2811 35.2601 37.9827 35.2601H39.0173C44.7268 35.2601 49.3628 30.6163 49.3628 24.9146V13.2779H27.6373Z" fill="#C9AA4D"/>
<path d="M38.5039 77.0002L38.185 76.8602C37.6872 76.6424 26.0815 71.3607 26.0815 64.5078C26.0815 57.6549 31.6588 52.0854 38.5039 52.0854C45.3568 52.0854 50.9263 57.6627 50.9263 64.5078C50.9263 71.3685 39.3129 76.6424 38.8228 76.8602L38.5039 77.0002ZM38.5039 53.6412C32.5144 53.6412 27.6373 58.5183 27.6373 64.5078C27.6373 69.805 36.6759 74.4177 38.5039 75.2967C40.3319 74.4177 49.3706 69.7972 49.3706 64.5078C49.3706 58.5105 44.4934 53.6412 38.5039 53.6412Z" fill="#C9AA4D"/>
<path d="M50.9263 65.2855H26.0815V52.0853C26.0815 45.5202 31.4254 40.1841 37.9827 40.1841H39.0173C45.5824 40.1841 50.9185 45.528 50.9185 52.0853V65.2855H50.9263ZM27.6373 63.7298H49.3706V52.0853C49.3706 46.3758 44.7268 41.7398 39.0251 41.7398H37.9905C32.2811 41.7398 27.645 46.3836 27.645 52.0853V63.7298H27.6373Z" fill="#C9AA4D"/>
<path d="M12.5002 50.9263C5.63946 50.9263 0.365593 39.3129 0.147793 38.8228L0 38.5039L0.140014 38.185C0.357814 37.6872 5.63946 26.0815 12.4924 26.0815C19.3453 26.0815 24.9147 31.6588 24.9147 38.5039C24.9147 45.349 19.3453 50.9263 12.5002 50.9263ZM1.71128 38.5039C2.59026 40.3319 7.21073 49.3706 12.5002 49.3706C18.4896 49.3706 23.3668 44.4934 23.3668 38.5039C23.3668 32.5144 18.4896 27.6373 12.5002 27.6373C7.21073 27.6373 2.59026 36.6759 1.71128 38.5039Z" fill="#C9AA4D"/>
<path d="M24.9147 50.9263H11.7223V26.0815H24.9147C31.4798 26.0815 36.8159 31.4254 36.8159 37.9827V39.0173C36.8159 45.5824 31.4798 50.9263 24.9147 50.9263ZM13.278 49.3706H24.9147C30.6242 49.3706 35.2602 44.7268 35.2602 39.0251V37.9905C35.2602 32.2811 30.6164 27.645 24.9147 27.645H13.278V49.3706Z" fill="#C9AA4D"/>
<path d="M64.5076 50.9263C57.6547 50.9263 52.0853 45.349 52.0853 38.5039C52.0853 31.6588 57.6625 26.0815 64.5076 26.0815C71.3683 26.0815 76.6422 37.6949 76.86 38.185L77 38.5039L76.86 38.8228C76.6422 39.3129 71.3606 50.9263 64.5076 50.9263ZM64.5076 27.6373C58.5181 27.6373 53.641 32.5144 53.641 38.5039C53.641 44.4934 58.5181 49.3706 64.5076 49.3706C69.7971 49.3706 74.4175 40.3319 75.2965 38.5039C74.4098 36.6759 69.7971 27.6373 64.5076 27.6373Z" fill="#C9AA4D"/>
<path d="M65.2855 50.9253H52.0853C45.5202 50.9253 40.1841 45.5815 40.1841 39.0241V37.9896C40.1841 31.4245 45.528 26.0884 52.0853 26.0884H65.2777V50.9253H65.2855ZM52.0853 27.6363C46.3758 27.6363 41.7398 32.2801 41.7398 37.9818V39.0163C41.7398 44.7258 46.3836 49.3618 52.0853 49.3618H63.722V27.6363H52.0853Z" fill="#C9AA4D"/>
<path d="M20.1154 32.5297C16.9339 32.5297 13.7525 31.3163 11.3334 28.8971C6.48733 24.0511 10.96 12.1032 11.1545 11.5976L11.2789 11.2709L11.6056 11.1464C12.1112 10.952 24.0513 6.47153 28.9052 11.3254C33.7512 16.1714 33.7512 24.0511 28.9052 28.8971C26.4782 31.324 23.2968 32.5297 20.1154 32.5297ZM12.4846 12.4844C11.8156 14.3979 8.68867 24.0589 12.4302 27.8004C16.6695 32.0397 23.5613 32.0397 27.8006 27.8004C32.0399 23.561 32.0399 16.6692 27.8006 12.4299C24.0591 8.68842 14.3981 11.8154 12.4846 12.4844Z" fill="#C9AA4D"/>
<path d="M28.524 41.1638C25.4748 41.1638 22.4256 40.0048 20.1076 37.679L10.7811 28.3525L28.3528 10.7808L37.6793 20.1073C42.3231 24.7511 42.3231 32.304 37.6793 36.9401L36.9482 37.6713C34.6224 39.997 31.5732 41.1638 28.524 41.1638ZM12.9824 28.3525L21.2121 36.5823C25.2492 40.6193 31.8143 40.6193 35.8514 36.5823L36.5826 35.8511C40.6196 31.814 40.6196 25.2489 36.5826 21.2118L28.3528 12.9821L12.9824 28.3525Z" fill="#C9AA4D"/>
<path d="M54.979 67.9221C52.3498 67.9221 49.7984 67.362 48.1105 65.6741C43.2644 60.828 43.2644 52.9484 48.1105 48.1023C52.9565 43.2563 60.8362 43.2563 65.6823 48.1023C70.5283 52.9484 66.0556 64.8962 65.8612 65.4018L65.7289 65.7285L65.4022 65.853C65.0678 65.9774 59.8872 67.9221 54.979 67.9221ZM56.8925 46.0254C54.1078 46.0254 51.323 47.0833 49.2073 49.2069C44.9679 53.4462 44.9679 60.338 49.2073 64.5773C52.9488 68.3188 62.6097 65.1918 64.5233 64.5229C65.1922 62.6093 68.3192 52.9483 64.5777 49.2069C62.4542 47.0833 59.6694 46.0254 56.8925 46.0254Z" fill="#C9AA4D"/>
<path d="M48.655 66.2263L39.3207 56.8921C34.6769 52.2483 34.6769 44.6953 39.3207 40.0592L40.0519 39.3281C44.6957 34.6843 52.2487 34.6843 56.8847 39.3281L66.2112 48.6546L48.655 66.2263ZM48.4761 37.399C45.8236 37.399 43.1789 38.4102 41.1564 40.4248L40.4252 41.156C36.3882 45.1931 36.3882 51.7582 40.4252 55.7953L48.655 64.025L64.0254 48.6546L55.7957 40.4248C53.7733 38.4102 51.1285 37.399 48.4761 37.399Z" fill="#C9AA4D"/>
<path d="M22.0289 67.9226C17.1128 67.9226 11.9323 65.9779 11.6056 65.8535L11.2789 65.729L11.1544 65.4023C10.96 64.8967 6.47953 52.9566 11.3334 48.1028C16.1794 43.2568 24.0591 43.2568 28.9051 48.1028C33.7512 52.9488 33.7512 60.8285 28.9051 65.6746C27.2094 67.3625 24.658 67.9226 22.0289 67.9226ZM12.4846 64.5156C14.3981 65.1845 24.0591 68.3115 27.7928 64.57C32.0321 60.3307 32.0321 53.4389 27.7928 49.1996C23.5535 44.9603 16.6617 44.9603 12.4223 49.1996C8.68864 52.9488 11.8156 62.602 12.4846 64.5156Z" fill="#C9AA4D"/>
<path d="M28.3528 66.2268L10.7811 48.655L20.1076 39.3286C24.7514 34.6848 32.3044 34.6848 36.9404 39.3286L37.6716 40.0597C42.3154 44.7035 42.3154 52.2565 37.6716 56.8925L28.3528 66.2268ZM12.9824 48.655L28.3528 64.0255L36.5826 55.7958C40.6196 51.7587 40.6196 45.1936 36.5826 41.1565L35.8514 40.4253C31.8143 36.3883 25.2492 36.3883 21.2121 40.4253L12.9824 48.655Z" fill="#C9AA4D"/>
<path d="M56.8924 32.5302C53.711 32.5302 50.5296 31.3167 48.1104 28.8976C43.2644 24.0515 43.2644 16.1719 48.1104 11.3258C52.9565 6.47976 64.9043 10.9524 65.4099 11.1469L65.7367 11.2714L65.8611 11.5981C66.0556 12.1037 70.536 24.0438 65.6822 28.8976C63.2553 31.3245 60.0739 32.5302 56.8924 32.5302ZM49.2072 12.4304C44.9679 16.6697 44.9679 23.5615 49.2072 27.8008C53.4465 32.0401 60.3383 32.0401 64.5776 27.8008C68.3191 24.0593 65.1922 14.3983 64.5232 12.4848C62.6019 11.8159 52.9409 8.68888 49.2072 12.4304Z" fill="#C9AA4D"/>
<path d="M48.476 41.1644C45.4268 41.1644 42.3776 40.0054 40.0596 37.6796L39.3284 36.9484C34.6846 32.3046 34.6846 24.7516 39.3284 20.1156L48.6549 10.7891L66.2267 28.3608L56.8924 37.6796C54.5744 39.9976 51.5252 41.1644 48.476 41.1644ZM48.6549 12.9826L40.4252 21.2123C36.3881 25.2494 36.3881 31.8145 40.4252 35.8516L41.1564 36.5828C45.1935 40.6199 51.7586 40.6199 55.7956 36.5828L64.0254 28.3531L48.6549 12.9826Z" fill="#C9AA4D"/>
<path d="M38.5039 17.0273C36.1237 17.0273 34.1946 15.0905 34.1946 12.718C34.1946 10.3378 36.1314 8.40869 38.5039 8.40869C40.8842 8.40869 42.8132 10.3456 42.8132 12.718C42.8132 15.0983 40.8764 17.0273 38.5039 17.0273ZM38.5039 9.9644C36.9871 9.9644 35.7503 11.2012 35.7503 12.718C35.7503 14.2348 36.9871 15.4716 38.5039 15.4716C40.0207 15.4716 41.2575 14.2348 41.2575 12.718C41.2575 11.2012 40.0207 9.9644 38.5039 9.9644Z" fill="#C9AA4D"/>
<path d="M38.5039 69.4316C36.1237 69.4316 34.1946 67.4948 34.1946 65.1223C34.1946 62.7499 36.1314 60.813 38.5039 60.813C40.8842 60.813 42.8132 62.7499 42.8132 65.1223C42.8132 67.4948 40.8764 69.4316 38.5039 69.4316ZM38.5039 62.3687C36.9871 62.3687 35.7503 63.6055 35.7503 65.1223C35.7503 66.6391 36.9871 67.8759 38.5039 67.8759C40.0207 67.8759 41.2575 66.6391 41.2575 65.1223C41.2575 63.6055 40.0207 62.3687 38.5039 62.3687Z" fill="#C9AA4D"/>
<path d="M64.7021 43.2334C62.3218 43.2334 60.3928 41.2965 60.3928 38.9241C60.3928 36.5438 62.3296 34.6147 64.7021 34.6147C67.0823 34.6147 69.0114 36.5516 69.0114 38.9241C69.0114 41.2965 67.0823 43.2334 64.7021 43.2334ZM64.7021 36.1705C63.1853 36.1705 61.9485 37.4073 61.9485 38.9241C61.9485 40.4409 63.1853 41.6777 64.7021 41.6777C66.2189 41.6777 67.4557 40.4409 67.4557 38.9241C67.4557 37.3995 66.2189 36.1705 64.7021 36.1705Z" fill="#C9AA4D"/>
<path d="M12.2979 43.2334C9.91767 43.2334 7.98859 41.2965 7.98859 38.9241C7.98859 36.5438 9.92545 34.6147 12.2979 34.6147C14.6704 34.6147 16.6072 36.5516 16.6072 38.9241C16.6072 41.2965 14.6782 43.2334 12.2979 43.2334ZM12.2979 36.1705C10.7811 36.1705 9.5443 37.4073 9.5443 38.9241C9.5443 40.4409 10.7811 41.6777 12.2979 41.6777C13.8147 41.6777 15.0515 40.4409 15.0515 38.9241C15.0515 37.3995 13.8147 36.1705 12.2979 36.1705Z" fill="#C9AA4D"/>
<path d="M57.0324 24.7046C55.9279 24.7046 54.8233 24.2845 53.9832 23.4445C53.1665 22.6277 52.7231 21.5465 52.7231 20.3953C52.7231 19.244 53.1742 18.1628 53.9832 17.3461C55.6634 15.6659 58.4014 15.6659 60.0816 17.3461C60.8984 18.1628 61.3417 19.244 61.3417 20.3953C61.3417 21.5465 60.8906 22.6277 60.0816 23.4445C59.2337 24.2845 58.1292 24.7046 57.0324 24.7046ZM57.0324 17.6417C56.2934 17.6417 55.6089 17.9295 55.0878 18.4506C54.5666 18.9718 54.2788 19.6641 54.2788 20.3953C54.2788 21.1342 54.5666 21.8187 55.0878 22.3399C56.1301 23.3822 57.9425 23.3822 58.9848 22.3399C59.506 21.8187 59.7938 21.1264 59.7938 20.3953C59.7938 19.6563 59.506 18.9718 58.9848 18.4506C58.4559 17.9295 57.7636 17.6417 57.0324 17.6417Z" fill="#C9AA4D"/>
<path d="M19.9753 61.7539C18.8708 61.7539 17.7662 61.3339 16.9261 60.4938C15.246 58.8136 15.246 56.0756 16.9261 54.3954C18.6063 52.7152 21.3444 52.7152 23.0245 54.3954C24.7047 56.0756 24.7047 58.8136 23.0245 60.4938C22.1845 61.3339 21.0799 61.7539 19.9753 61.7539ZM19.9753 54.6987C19.2675 54.6987 18.5674 54.971 18.0307 55.5077C16.9573 56.5812 16.9573 58.3313 18.0307 59.4048C19.073 60.4471 20.8854 60.4471 21.9278 59.4048C23.0012 58.3313 23.0012 56.5812 21.9278 55.5077C21.3833 54.9632 20.6754 54.6987 19.9753 54.6987Z" fill="#C9AA4D"/>
<path d="M57.0324 61.7539C55.9279 61.7539 54.8233 61.3339 53.9832 60.4938C52.303 58.8136 52.303 56.0756 53.9832 54.3954C55.6634 52.7152 58.4014 52.7152 60.0816 54.3954C61.7618 56.0756 61.7618 58.8136 60.0816 60.4938C59.2337 61.3339 58.1292 61.7539 57.0324 61.7539ZM57.0324 54.6987C56.3246 54.6987 55.6245 54.971 55.0878 55.5077C54.0143 56.5812 54.0143 58.3313 55.0878 59.4048C56.1301 60.4471 57.9425 60.4471 58.9848 59.4048C60.0583 58.3313 60.0583 56.5812 58.9848 55.5077C58.4403 54.9632 57.7325 54.6987 57.0324 54.6987Z" fill="#C9AA4D"/>
<path d="M19.9753 24.7046C18.8708 24.7046 17.7662 24.2845 16.9261 23.4445C16.1094 22.6277 15.666 21.5465 15.666 20.3953C15.666 19.244 16.1172 18.1628 16.9261 17.3461C18.6063 15.6659 21.3444 15.6659 23.0245 17.3461C23.8413 18.1628 24.2847 19.244 24.2847 20.3953C24.2847 21.5465 23.8335 22.6277 23.0245 23.4445C22.1845 24.2845 21.0799 24.7046 19.9753 24.7046ZM19.9753 17.6417C19.2364 17.6417 18.5441 17.9295 18.0307 18.4506C17.5095 18.9718 17.2217 19.6641 17.2217 20.3953C17.2217 21.1342 17.5095 21.8187 18.0307 22.3399C19.073 23.3822 20.8854 23.3822 21.9278 22.3399C22.4489 21.8187 22.7367 21.1264 22.7367 20.3953C22.7367 19.6563 22.4489 18.9718 21.9278 18.4506C21.3988 17.9295 20.7065 17.6417 19.9753 17.6417Z" fill="#C9AA4D"/>
</g>
<defs>
<clipPath id="clip0_138_805">
<rect width="77" height="77" fill="white"/>
</clipPath>
</defs>
</svg>
