<svg width="277" height="275" viewBox="0 0 277 275" fill="none" xmlns="http://www.w3.org/2000/svg">
<path d="M245.332 131.447L237.395 123.51L245.332 115.573L253.269 123.51L245.332 131.447ZM239.029 123.516L245.332 129.819L251.636 123.516L245.332 117.213L239.029 123.516Z" fill="#C9AA4D"/>
<path d="M245.332 125.19L245.044 125.023C242.042 123.279 240.172 120.053 240.172 116.595C240.172 113.137 242.036 109.905 245.044 108.167L245.332 108L245.621 108.167C248.623 109.911 250.493 113.137 250.493 116.595C250.493 120.053 248.628 123.285 245.621 125.023L245.332 125.19ZM245.332 109.339C242.856 110.909 241.326 113.657 241.326 116.595C241.326 119.533 242.85 122.281 245.332 123.851C247.815 122.281 249.338 119.533 249.338 116.595C249.338 113.657 247.809 110.909 245.332 109.339Z" fill="#C9AA4D"/>
<path d="M245.332 163.086L237.395 155.149L245.332 147.212L253.269 155.149L245.332 163.086ZM239.029 155.149L245.332 161.452L251.636 155.149L245.332 148.845L239.029 155.149Z" fill="#C9AA4D"/>
<path d="M245.332 170.665L245.044 170.498C242.042 168.755 240.172 165.528 240.172 162.07C240.172 158.612 242.036 155.38 245.044 153.643L245.332 153.475L245.621 153.643C248.623 155.386 250.493 158.612 250.493 162.07C250.493 165.528 248.628 168.76 245.621 170.498L245.332 170.665ZM245.332 154.814C242.856 156.384 241.326 159.132 241.326 162.07C241.326 165.008 242.85 167.756 245.332 169.326C247.815 167.756 249.338 165.008 249.338 162.07C249.338 159.138 247.809 156.384 245.332 154.814Z" fill="#C9AA4D"/>
<path d="M229.516 147.264L221.579 139.327L229.516 131.39L237.453 139.327L229.516 147.264ZM223.213 139.332L229.516 145.636L235.819 139.332L229.516 133.029L223.213 139.332Z" fill="#C9AA4D"/>
<path d="M222.595 144.493C219.137 144.493 215.905 142.628 214.167 139.621L214 139.332L214.167 139.044C215.905 136.042 219.137 134.172 222.595 134.172C226.053 134.172 229.285 136.036 231.023 139.044L231.19 139.332L231.023 139.621C229.279 142.623 226.053 144.493 222.595 144.493ZM215.339 139.332C216.909 141.809 219.657 143.338 222.595 143.338C225.533 143.338 228.281 141.814 229.851 139.332C228.281 136.856 225.533 135.326 222.595 135.326C219.657 135.326 216.909 136.85 215.339 139.332Z" fill="#C9AA4D"/>
<path d="M261.149 147.264L253.212 139.327L261.149 131.39L269.086 139.327L261.149 147.264ZM254.845 139.332L261.149 145.636L267.452 139.332L261.149 133.029L254.845 139.332Z" fill="#C9AA4D"/>
<path d="M268.07 144.492C264.612 144.492 261.379 142.628 259.642 139.62L259.475 139.332L259.642 139.043C261.379 136.042 264.612 134.171 268.07 134.171C271.527 134.171 274.76 136.036 276.497 139.043L276.665 139.332L276.497 139.62C274.76 142.622 271.527 144.492 268.07 144.492ZM260.819 139.332C262.39 141.808 265.137 143.338 268.075 143.338C271.013 143.338 273.761 141.814 275.331 139.332C273.761 136.856 271.013 135.326 268.075 135.326C265.137 135.326 262.384 136.85 260.819 139.332Z" fill="#C9AA4D"/>
<path d="M239.756 133.757H228.535V122.535H239.756V133.757ZM229.689 132.602H238.602V123.69H229.689V132.602Z" fill="#C9AA4D"/>
<path d="M232.5 129.745C229.943 129.745 227.444 128.746 225.602 126.899C223.155 124.451 222.191 120.849 223.086 117.496L223.172 117.172L223.495 117.086C226.849 116.191 230.451 117.155 232.899 119.603C235.346 122.05 236.31 125.652 235.415 129.006L235.329 129.329L235.006 129.416C234.18 129.635 233.337 129.745 232.5 129.745ZM224.125 118.125C223.484 120.988 224.344 124.013 226.422 126.085C228.5 128.163 231.519 129.023 234.382 128.382C235.023 125.519 234.163 122.494 232.085 120.422C230.012 118.344 226.988 117.478 224.125 118.125Z" fill="#C9AA4D"/>
<path d="M262.13 156.124H250.908V144.903H262.13V156.124ZM252.063 154.97H260.975V146.057H252.063V154.97Z" fill="#C9AA4D"/>
<path d="M264.658 161.902C262.101 161.902 259.602 160.904 257.76 159.056C255.313 156.609 254.349 153.007 255.243 149.653L255.33 149.33L255.653 149.243C259.007 148.349 262.609 149.313 265.056 151.76C267.504 154.208 268.468 157.81 267.573 161.163L267.487 161.487L267.163 161.573C266.338 161.793 265.495 161.902 264.658 161.902ZM256.282 150.283C255.642 153.146 256.502 156.17 258.58 158.243C260.658 160.321 263.683 161.186 266.54 160.54C267.181 157.677 266.321 154.652 264.242 152.58C262.164 150.502 259.145 149.642 256.282 150.283Z" fill="#C9AA4D"/>
<path d="M239.756 156.124H228.535V144.903H239.756V156.124ZM229.689 154.97H238.602V146.057H229.689V154.97Z" fill="#C9AA4D"/>
<path d="M226.006 161.903C225.169 161.903 224.327 161.793 223.501 161.574L223.178 161.487L223.091 161.164C222.197 157.81 223.161 154.208 225.608 151.761C228.056 149.313 231.658 148.349 235.011 149.244L235.335 149.331L235.421 149.654C236.316 153.008 235.352 156.61 232.904 159.057C231.057 160.904 228.558 161.903 226.006 161.903ZM224.125 160.54C226.988 161.181 230.012 160.321 232.085 158.243C234.163 156.165 235.023 153.146 234.382 150.283C231.519 149.642 228.494 150.502 226.422 152.58C224.344 154.653 223.478 157.677 224.125 160.54Z" fill="#C9AA4D"/>
<path d="M262.13 133.756H250.908V122.535H262.13V133.756ZM252.063 132.602H260.975V123.689H252.063V132.602Z" fill="#C9AA4D"/>
<path d="M258.164 129.745C257.327 129.745 256.484 129.635 255.659 129.416L255.336 129.329L255.249 129.006C254.354 125.652 255.318 122.05 257.766 119.603C260.213 117.155 263.815 116.191 267.169 117.086L267.492 117.172L267.579 117.496C268.474 120.849 267.51 124.451 265.062 126.899C263.215 128.746 260.716 129.745 258.164 129.745ZM256.282 128.382C259.146 129.023 262.17 128.163 264.242 126.085C266.321 124.007 267.181 120.988 266.54 118.125C263.677 117.484 260.652 118.344 258.58 120.422C256.502 122.494 255.636 125.519 256.282 128.382Z" fill="#C9AA4D"/>
<path d="M249.25 111.935L248.503 112.816L261.171 123.554L261.918 122.673L249.25 111.935Z" fill="#C9AA4D"/>
<path d="M241.062 111.934L228.395 122.672L229.141 123.553L241.809 112.815L241.062 111.934Z" fill="#C9AA4D"/>
<path d="M261.171 155.215L248.503 165.953L249.25 166.834L261.917 156.096L261.171 155.215Z" fill="#C9AA4D"/>
<path d="M229.144 155.224L228.398 156.104L241.066 166.843L241.812 165.962L229.144 155.224Z" fill="#C9AA4D"/>
<path d="M228.442 122.639L217.704 135.307L218.585 136.053L229.323 123.385L228.442 122.639Z" fill="#C9AA4D"/>
<path d="M218.579 142.743L217.699 143.49L228.437 156.158L229.317 155.411L218.579 142.743Z" fill="#C9AA4D"/>
<path d="M261.875 122.638L260.994 123.385L271.732 136.053L272.613 135.306L261.875 122.638Z" fill="#C9AA4D"/>
<path d="M271.734 142.742L260.996 155.41L261.876 156.157L272.614 143.489L271.734 142.742Z" fill="#C9AA4D"/>
<path d="M245.332 147.512C240.824 147.512 237.153 143.84 237.153 139.332C237.153 134.824 240.824 131.153 245.332 131.153C249.841 131.153 253.512 134.824 253.512 139.332C253.512 143.84 249.841 147.512 245.332 147.512ZM245.332 132.307C241.459 132.307 238.307 135.459 238.307 139.332C238.307 143.206 241.459 146.357 245.332 146.357C249.206 146.357 252.357 143.206 252.357 139.332C252.357 135.459 249.206 132.307 245.332 132.307Z" fill="#C9AA4D"/>
<path d="M245.332 143.46C243.058 143.46 241.205 141.607 241.205 139.332C241.205 137.058 243.058 135.205 245.332 135.205C247.607 135.205 249.46 137.058 249.46 139.332C249.46 141.607 247.607 143.46 245.332 143.46ZM245.332 136.36C243.693 136.36 242.36 137.693 242.36 139.332C242.36 140.972 243.693 142.305 245.332 142.305C246.972 142.305 248.305 140.972 248.305 139.332C248.305 137.693 246.972 136.36 245.332 136.36Z" fill="#C9AA4D"/>
<path d="M138.888 19.9907C133.389 19.9907 128.921 15.5157 128.921 10.0234C128.921 4.5249 138.239 0.287097 138.632 0.112342L138.888 0L139.144 0.112342C139.543 0.287097 148.855 4.5249 148.855 10.0234C148.855 15.5157 144.386 19.9907 138.888 19.9907ZM138.888 1.36683C137.421 2.07209 130.169 5.77938 130.169 10.0234C130.169 14.8292 134.082 18.7424 138.888 18.7424C143.694 18.7424 147.607 14.8292 147.607 10.0234C147.607 5.77938 140.355 2.07209 138.888 1.36683Z" fill="#C9AA4D"/>
<path d="M139.306 29.5335H138.476C133.208 29.5335 128.927 25.2458 128.927 19.9844V9.39307H148.861V19.9782C148.855 25.252 144.574 29.5335 139.306 29.5335ZM130.169 10.6413V19.9782C130.169 24.5593 133.895 28.279 138.47 28.279H139.3C143.881 28.279 147.601 24.553 147.601 19.9782V10.6413H130.169Z" fill="#C9AA4D"/>
<path d="M138.888 61.7758L138.632 61.6635C138.233 61.4887 128.921 57.2509 128.921 51.7524C128.921 46.2539 133.389 41.7852 138.888 41.7852C144.386 41.7852 148.855 46.2601 148.855 51.7524C148.855 57.2572 139.537 61.4887 139.144 61.6635L138.888 61.7758ZM138.888 43.0272C134.082 43.0272 130.169 46.9404 130.169 51.7462C130.169 55.9965 137.421 59.6975 138.888 60.4028C140.355 59.6975 147.607 55.9902 147.607 51.7462C147.607 46.9404 143.694 43.0272 138.888 43.0272Z" fill="#C9AA4D"/>
<path d="M148.855 52.3701H128.921V41.7849C128.921 36.5173 133.208 32.2358 138.47 32.2358H139.3C144.567 32.2358 148.849 36.5236 148.849 41.7849V52.3701H148.855ZM130.169 51.1218H147.607V41.7849C147.607 37.2039 143.881 33.4841 139.306 33.4841H138.476C133.895 33.4841 130.175 37.2101 130.175 41.7849V51.1218H130.169Z" fill="#C9AA4D"/>
<path d="M118.023 40.8549C112.519 40.8549 108.287 31.5368 108.112 31.1436L108 30.8877L108.112 30.6318C108.287 30.2323 112.525 20.9204 118.023 20.9204C123.522 20.9204 127.991 25.3954 127.991 30.8877C127.991 36.38 123.522 40.8549 118.023 40.8549ZM109.367 30.8814C110.072 32.3481 113.779 39.6004 118.023 39.6004C122.829 39.6004 126.742 35.6872 126.742 30.8814C126.742 26.0757 122.829 22.1624 118.023 22.1624C113.779 22.1624 110.072 29.421 109.367 30.8814Z" fill="#C9AA4D"/>
<path d="M127.985 40.8548H117.399V20.9141H127.985C133.252 20.9141 137.534 25.2018 137.534 30.4632V31.2932C137.54 36.5671 133.252 40.8548 127.985 40.8548ZM118.648 39.6066H127.985C132.566 39.6066 136.285 35.8805 136.285 31.3057V30.4756C136.285 25.8946 132.559 22.1748 127.985 22.1748H118.648V39.6066Z" fill="#C9AA4D"/>
<path d="M159.752 40.8544C154.254 40.8544 149.785 36.3795 149.785 30.8872C149.785 25.3949 154.26 20.9199 159.752 20.9199C165.257 20.9199 169.489 30.2381 169.663 30.6313L169.776 30.8872L169.663 31.1431C169.489 31.5363 165.251 40.8544 159.752 40.8544ZM159.752 22.1619C154.947 22.1619 151.033 26.0752 151.033 30.8809C151.033 35.6867 154.947 39.5999 159.752 39.5999C163.996 39.5999 167.704 32.3476 168.409 30.8809C167.704 29.4205 163.996 22.1619 159.752 22.1619Z" fill="#C9AA4D"/>
<path d="M160.377 40.8545H149.791C144.524 40.8545 140.242 36.5668 140.242 31.3054V30.4754C140.242 25.2078 144.53 20.9263 149.791 20.9263H160.377V40.8545ZM149.791 22.162C145.21 22.162 141.491 25.8881 141.491 30.4629V31.293C141.491 35.874 145.217 39.5938 149.791 39.5938H159.128V22.162H149.791Z" fill="#C9AA4D"/>
<path d="M124.134 26.0945C121.581 26.0945 119.028 25.1208 117.087 23.1798C113.199 19.2915 116.788 9.70496 116.944 9.29928L117.044 9.03715L117.306 8.93729C117.711 8.78126 127.292 5.18631 131.186 9.08084C135.075 12.9691 135.075 19.2915 131.186 23.1798C129.239 25.1208 126.686 26.0945 124.134 26.0945ZM118.017 10.0108C117.48 11.5461 114.971 19.2977 117.974 22.2998C121.375 25.7013 126.905 25.7013 130.306 22.2998C133.708 18.8983 133.708 13.3686 130.306 9.96709C127.298 6.96506 119.546 9.47404 118.017 10.0108Z" fill="#C9AA4D"/>
<path d="M130.887 33.016C128.44 33.016 125.994 32.086 124.134 30.2199L116.644 22.7366L130.743 8.6377L138.226 16.1209C141.952 19.847 141.952 25.9072 138.226 29.627L137.64 30.2136C135.78 32.086 133.333 33.016 130.887 33.016ZM118.41 22.7366L125.014 29.3399C128.253 32.5791 133.52 32.5791 136.76 29.3399L137.346 28.7532C140.586 25.514 140.586 20.2464 137.346 17.0072L130.743 10.404L118.41 22.7366Z" fill="#C9AA4D"/>
<path d="M152.107 54.4917C149.997 54.4917 147.95 54.0424 146.596 52.688C142.708 48.7997 142.708 42.4774 146.596 38.5891C150.484 34.7008 156.807 34.7008 160.695 38.5891C164.583 42.4774 160.994 52.0639 160.838 52.4696L160.738 52.7317L160.476 52.8316C160.208 52.9314 156.045 54.4917 152.107 54.4917ZM153.642 36.9227C151.408 36.9227 149.173 37.7715 147.476 39.4753C144.074 42.8768 144.074 48.4065 147.476 51.808C150.478 54.81 158.229 52.3011 159.765 51.7643C160.302 50.229 162.811 42.4774 159.809 39.4816C158.105 37.7715 155.877 36.9227 153.642 36.9227Z" fill="#C9AA4D"/>
<path d="M147.033 53.1254L139.55 45.6421C135.824 41.9161 135.824 35.8559 139.55 32.1361L140.136 31.5494C143.862 27.8234 149.922 27.8234 153.642 31.5494L161.125 39.0326L147.033 53.1254ZM146.889 30.0016C144.761 30.0016 142.639 30.8129 141.016 32.4294L140.43 33.0161C137.19 36.2553 137.19 41.5229 140.43 44.7621L147.033 51.3653L159.365 39.0326L152.762 32.4294C151.146 30.8067 149.017 30.0016 146.889 30.0016Z" fill="#C9AA4D"/>
<path d="M125.669 54.4922C121.724 54.4922 117.568 52.9319 117.306 52.8321L117.044 52.7322L116.944 52.4701C116.788 52.0644 113.193 42.4841 117.087 38.5896C120.976 34.7013 127.298 34.7013 131.186 38.5896C135.074 42.4778 135.074 48.8002 131.186 52.6885C129.826 54.0429 127.778 54.4922 125.669 54.4922ZM118.017 51.7586C119.553 52.2953 127.304 54.8043 130.3 51.8023C133.701 48.4008 133.701 42.871 130.3 39.4696C126.898 36.0681 121.369 36.0681 117.967 39.4696C114.965 42.4778 117.474 50.2232 118.017 51.7586Z" fill="#C9AA4D"/>
<path d="M130.743 53.1254L116.644 39.0326L124.127 31.5494C127.853 27.8234 133.914 27.8234 137.633 31.5494L138.22 32.1361C141.946 35.8621 141.946 41.9223 138.22 45.6421L130.743 53.1254ZM118.41 39.0326L130.743 51.3653L137.346 44.7621C140.585 41.5229 140.585 36.2553 137.346 33.0161L136.76 32.4294C133.52 29.1902 128.253 29.1902 125.014 32.4294L118.41 39.0326Z" fill="#C9AA4D"/>
<path d="M153.642 26.0946C151.089 26.0946 148.537 25.121 146.596 23.1799C142.707 19.2917 142.707 12.9693 146.596 9.081C150.484 5.19271 160.071 8.78142 160.476 8.93745L160.738 9.03731L160.838 9.29944C160.994 9.70512 164.589 19.2854 160.695 23.1799C158.747 25.121 156.195 26.0946 153.642 26.0946ZM147.476 9.96725C144.074 13.3687 144.074 18.8985 147.476 22.2999C150.877 25.7014 156.407 25.7014 159.808 22.2999C162.811 19.2979 160.302 11.5463 159.765 10.0109C158.229 9.4742 150.478 6.96522 147.476 9.96725Z" fill="#C9AA4D"/>
<path d="M146.889 33.0161C144.443 33.0161 141.996 32.0861 140.136 30.22L139.549 29.6333C135.823 25.9073 135.823 19.8471 139.549 16.1273L147.033 8.64404L161.132 22.743L153.648 30.2262C151.782 32.0861 149.336 33.0161 146.889 33.0161ZM147.033 10.4041L140.429 17.0073C137.19 20.2465 137.19 25.5141 140.429 28.7533L141.016 29.34C144.255 32.5792 149.523 32.5792 152.762 29.34L159.365 22.7368L147.033 10.4041Z" fill="#C9AA4D"/>
<path d="M138.888 13.656C136.978 13.656 135.43 12.1019 135.43 10.1984C135.43 8.28855 136.984 6.74072 138.888 6.74072C140.798 6.74072 142.345 8.29479 142.345 10.1984C142.345 12.1082 140.791 13.656 138.888 13.656ZM138.888 7.98897C137.671 7.98897 136.678 8.98133 136.678 10.1984C136.678 11.4154 137.671 12.4078 138.888 12.4078C140.105 12.4078 141.097 11.4154 141.097 10.1984C141.097 8.98133 140.105 7.98897 138.888 7.98897Z" fill="#C9AA4D"/>
<path d="M138.888 55.7029C136.978 55.7029 135.43 54.1488 135.43 52.2452C135.43 50.3354 136.984 48.7876 138.888 48.7876C140.798 48.7876 142.345 50.3417 142.345 52.2452C142.345 54.1488 140.791 55.7029 138.888 55.7029ZM138.888 50.0358C137.671 50.0358 136.678 51.0282 136.678 52.2452C136.678 53.4623 137.671 54.4546 138.888 54.4546C140.105 54.4546 141.097 53.4623 141.097 52.2452C141.097 51.0282 140.105 50.0358 138.888 50.0358Z" fill="#C9AA4D"/>
<path d="M159.908 34.6829C157.999 34.6829 156.451 33.1288 156.451 31.2252C156.451 29.3154 158.005 27.7676 159.908 27.7676C161.818 27.7676 163.366 29.3216 163.366 31.2252C163.372 33.1288 161.818 34.6829 159.908 34.6829ZM159.908 29.0096C158.691 29.0096 157.699 30.0019 157.699 31.219C157.699 32.436 158.691 33.4284 159.908 33.4284C161.125 33.4284 162.118 32.436 162.118 31.219C162.124 30.0019 161.132 29.0096 159.908 29.0096Z" fill="#C9AA4D"/>
<path d="M117.861 34.6834C115.951 34.6834 114.404 33.1293 114.404 31.2257C114.404 29.3159 115.958 27.7681 117.861 27.7681C119.765 27.7681 121.319 29.3221 121.319 31.2257C121.325 33.1293 119.771 34.6834 117.861 34.6834ZM117.861 29.0101C116.644 29.0101 115.652 30.0024 115.652 31.2195C115.652 32.4365 116.644 33.4289 117.861 33.4289C119.078 33.4289 120.071 32.4365 120.071 31.2195C120.077 30.0024 119.084 29.0101 117.861 29.0101Z" fill="#C9AA4D"/>
<path d="M153.755 19.8098C152.868 19.8098 151.982 19.4728 151.308 18.7987C150.653 18.1434 150.297 17.2759 150.297 16.3522C150.297 15.4285 150.659 14.5609 151.308 13.9056C152.656 12.5575 154.853 12.5575 156.201 13.9056C156.856 14.5609 157.212 15.4285 157.212 16.3522C157.212 17.2759 156.85 18.1434 156.201 18.7987C155.527 19.4728 154.641 19.8098 153.755 19.8098ZM153.755 14.149C153.162 14.149 152.606 14.3799 152.194 14.7981C151.776 15.2163 151.545 15.7717 151.545 16.3584C151.545 16.9513 151.776 17.5006 152.194 17.9187C153.031 18.7551 154.485 18.7551 155.321 17.9187C155.739 17.5006 155.97 16.9451 155.97 16.3584C155.97 15.7655 155.739 15.21 155.321 14.7981C154.897 14.3737 154.341 14.149 153.755 14.149Z" fill="#C9AA4D"/>
<path d="M124.021 49.5432C123.135 49.5432 122.249 49.2062 121.575 48.5321C120.227 47.184 120.227 44.9871 121.575 43.639C122.923 42.2909 125.12 42.2909 126.468 43.639C127.816 44.9871 127.816 47.184 126.468 48.5321C125.794 49.2062 124.908 49.5432 124.021 49.5432ZM124.021 43.8762C123.453 43.8762 122.892 44.0946 122.461 44.5253C121.6 45.3866 121.6 46.7908 122.461 47.6521C123.297 48.4885 124.752 48.4885 125.588 47.6521C126.449 46.7908 126.449 45.3866 125.588 44.5253C125.151 44.0946 124.589 43.8762 124.021 43.8762Z" fill="#C9AA4D"/>
<path d="M153.755 49.5432C152.868 49.5432 151.982 49.2062 151.308 48.5321C149.96 47.184 149.96 44.9871 151.308 43.639C152.656 42.2909 154.853 42.2909 156.201 43.639C157.549 44.9871 157.549 47.184 156.201 48.5321C155.527 49.2062 154.641 49.5432 153.755 49.5432ZM153.755 43.8762C153.187 43.8762 152.625 44.0946 152.194 44.5253C151.333 45.3866 151.333 46.7908 152.194 47.6521C153.031 48.4885 154.485 48.4885 155.321 47.6521C156.182 46.7908 156.182 45.3866 155.321 44.5253C154.884 44.0946 154.323 43.8762 153.755 43.8762Z" fill="#C9AA4D"/>
<path d="M124.021 19.8098C123.135 19.8098 122.249 19.4728 121.575 18.7987C120.919 18.1434 120.564 17.2759 120.564 16.3522C120.564 15.4285 120.926 14.5609 121.575 13.9056C122.923 12.5575 125.12 12.5575 126.468 13.9056C127.123 14.5609 127.479 15.4285 127.479 16.3522C127.479 17.2759 127.117 18.1434 126.468 18.7987C125.794 19.4728 124.908 19.8098 124.021 19.8098ZM124.021 14.149C123.428 14.149 122.873 14.3799 122.461 14.7981C122.043 15.2163 121.812 15.7717 121.812 16.3584C121.812 16.9513 122.043 17.5006 122.461 17.9187C123.297 18.7551 124.752 18.7551 125.588 17.9187C126.006 17.5006 126.237 16.9451 126.237 16.3584C126.237 15.7655 126.006 15.21 125.588 14.7981C125.17 14.3737 124.614 14.149 124.021 14.149Z" fill="#C9AA4D"/>
<path d="M138.23 122.04L119.21 103.02L138.23 84L157.25 103.02L138.23 122.04ZM122.04 103.02L138.23 119.21L154.42 103.02L138.23 86.83L122.04 103.02Z" fill="#C9AA4D"/>
<path d="M138.23 139.65L119.21 120.63L138.23 101.61L157.25 120.63L138.23 139.65ZM122.04 120.63L138.23 136.82L154.42 120.63L138.23 104.44L122.04 120.63Z" fill="#C9AA4D"/>
<path d="M138.23 174.86L119.21 155.84L138.23 136.82L157.25 155.84L138.23 174.86ZM122.04 155.84L138.23 172.03L154.42 155.84L138.23 139.65L122.04 155.84Z" fill="#C9AA4D"/>
<path d="M138.23 192.47L119.21 173.45L138.23 154.43L157.25 173.45L138.23 192.47ZM122.04 173.45L138.23 189.64L154.42 173.45L138.23 157.26L122.04 173.45Z" fill="#C9AA4D"/>
<path d="M103.02 157.26L84 138.23L103.02 119.21L122.04 138.23L103.02 157.26ZM86.83 138.23L103.02 154.42L119.21 138.23L103.02 122.04L86.83 138.23Z" fill="#C9AA4D"/>
<path d="M120.63 157.26L101.61 138.23L120.63 119.21L139.65 138.23L120.63 157.26ZM104.43 138.23L120.62 154.42L136.81 138.23L120.63 122.04L104.43 138.23Z" fill="#C9AA4D"/>
<path d="M155.84 157.26L136.82 138.23L155.84 119.21L174.86 138.23L155.84 157.26ZM139.65 138.23L155.84 154.42L172.03 138.23L155.84 122.04L139.65 138.23Z" fill="#C9AA4D"/>
<path d="M173.45 157.26L154.43 138.23L173.45 119.21L192.47 138.23L173.45 157.26ZM157.26 138.23L173.45 154.42L189.64 138.23L173.45 122.04L157.26 138.23Z" fill="#C9AA4D"/>
<path d="M126.78 126.78H99.88V99.8799H126.78V126.78ZM101.88 124.78H124.78V101.88H101.88V124.78V124.78Z" fill="#C9AA4D"/>
<path d="M139.23 139.23H112.33V112.33H139.23V139.23ZM114.33 137.23H137.23V114.33H114.33V137.23Z" fill="#C9AA4D"/>
<path d="M164.13 164.13H137.23V137.23H164.13V164.13ZM139.23 162.13H162.13V139.23H139.23V162.13Z" fill="#C9AA4D"/>
<path d="M176.58 176.58H149.68V149.68H176.58V176.58V176.58ZM151.68 174.58H174.58V151.68H151.68V174.58Z" fill="#C9AA4D"/>
<path d="M126.78 176.58H99.88V149.68H126.78V176.58ZM101.88 174.58H124.78V151.68H101.88V174.58V174.58Z" fill="#C9AA4D"/>
<path d="M139.23 164.13H112.33V137.23H139.23V164.13ZM114.33 162.13H137.23V139.23H114.33V162.13Z" fill="#C9AA4D"/>
<path d="M164.13 139.23H137.23V112.33H164.13V139.23ZM139.23 137.23H162.13V114.33H139.23V137.23Z" fill="#C9AA4D"/>
<path d="M176.58 126.78H149.68V99.8799H176.58V126.78V126.78ZM151.68 124.78H174.58V101.88H151.68V124.78Z" fill="#C9AA4D"/>
<path d="M137.603 227.633L137.284 227.441C131.961 224.236 123.233 219.049 122.453 218.78L122.6 218.352V217.526C122.811 217.526 123.297 217.526 137.622 226.155L152.497 217.661L153.13 218.774L137.603 227.633Z" fill="#C9AA4D"/>
<path d="M122.511 271.302V270.662L122.364 270.042C123.143 269.773 131.897 264.618 137.226 261.432L137.546 261.24L153.047 270.157L152.408 271.264L137.558 262.724C123.303 271.244 122.722 271.302 122.511 271.302Z" fill="#C9AA4D"/>
<path d="M137.603 227.633L137.284 227.441C131.961 224.236 123.233 219.049 122.453 218.78L122.6 218.352V217.526C122.811 217.526 123.297 217.526 137.622 226.155L152.497 217.661L153.13 218.774L137.603 227.633Z" fill="#C9AA4D"/>
<path d="M122.511 271.301V270.662L122.364 270.041C123.143 269.773 131.897 264.617 137.226 261.432L137.546 261.24L153.047 270.156L152.408 271.263L137.558 262.724C123.303 271.244 122.722 271.301 122.511 271.301Z" fill="#C9AA4D"/>
<path d="M112.032 259.667L111.604 259.519H110.773C110.773 259.308 110.773 258.822 119.393 244.481L110.914 229.584L112.025 228.951L120.881 244.494L120.69 244.814C117.482 250.142 112.3 258.886 112.032 259.667Z" fill="#C9AA4D"/>
<path d="M163.238 259.756C162.97 258.976 157.82 250.213 154.638 244.878L154.446 244.558L163.353 229.041L164.459 229.68L155.928 244.546C164.497 258.912 164.497 259.405 164.497 259.609H163.219H163.858L163.238 259.756Z" fill="#C9AA4D"/>
<path d="M108.786 237.061L108.588 236.652L108 236.07C108.147 235.923 108.492 235.577 124.715 231.541L129.239 215L130.472 215.339L125.75 232.597L125.386 232.686C119.361 234.189 109.527 236.697 108.786 237.061Z" fill="#C9AA4D"/>
<path d="M145.922 274.161L145.469 273.707L144.926 273.374C145.29 272.632 147.833 262.794 149.354 256.769L149.443 256.404L166.701 251.741L167.034 252.976L150.497 257.447C146.414 273.668 146.069 274.014 145.922 274.161Z" fill="#C9AA4D"/>
<path d="M129.297 274.135C129.15 273.988 128.805 273.643 124.773 257.402L108.256 252.873L108.594 251.639L125.833 256.366L125.923 256.73C127.418 262.762 129.929 272.613 130.293 273.355L129.884 273.553L129.297 274.135Z" fill="#C9AA4D"/>
<path d="M166.567 237.164C165.826 236.799 155.999 234.253 149.98 232.731L149.616 232.641L144.958 215.364L146.191 215.032L150.657 231.586C166.867 235.68 167.213 236.025 167.359 236.172L166.906 236.626L166.567 237.164Z" fill="#C9AA4D"/>
<path d="M145.648 237.637L129.705 237.612L129.75 236.934C130.038 232.501 132.99 228.657 137.462 226.904L137.699 226.814L137.935 226.91C142.402 228.682 145.341 232.533 145.616 236.966L145.648 237.637ZM131.086 236.332L144.261 236.358C143.788 232.782 141.328 229.712 137.692 228.183C134.044 229.699 131.578 232.763 131.086 236.332Z" fill="#C9AA4D"/>
<path d="M137.629 262.481L137.392 262.391C132.926 260.62 129.987 256.769 129.712 252.336L129.674 251.658L145.616 251.684L145.571 252.362C145.283 256.795 142.331 260.639 137.859 262.391L137.629 262.481ZM131.06 252.937C131.533 256.507 133.993 259.577 137.635 261.106C141.277 259.59 143.75 256.526 144.235 252.957L131.06 252.937Z" fill="#C9AA4D"/>
<path d="M130.632 252.612L129.955 252.567C125.527 252.279 121.687 249.324 119.936 244.846L119.846 244.61L119.936 244.373C121.706 239.902 125.552 236.959 129.98 236.684L130.658 236.646L130.632 252.612ZM121.22 244.616C122.734 248.262 125.795 250.737 129.36 251.224L129.386 238.034C125.814 238.507 122.747 240.97 121.22 244.616Z" fill="#C9AA4D"/>
<path d="M144.664 252.637L144.689 236.678L145.366 236.723C149.794 237.01 153.635 239.966 155.385 244.443L155.475 244.68L155.379 244.916C153.609 249.388 149.762 252.33 145.334 252.605L144.664 252.637ZM145.967 238.066L145.941 251.255C149.507 250.782 152.574 248.319 154.101 244.673C152.593 241.027 149.526 238.552 145.967 238.066Z" fill="#C9AA4D"/>
<path d="M127.06 245.3L126.613 244.788C123.686 241.456 123.06 236.646 124.984 232.238L125.086 232.008L125.316 231.906C129.725 230 134.53 230.639 137.852 233.582L138.363 234.036L127.06 245.3ZM126.057 232.98C124.549 236.633 124.971 240.547 127.143 243.413L136.478 234.106C133.616 231.919 129.705 231.49 126.057 232.98Z" fill="#C9AA4D"/>
<path d="M144.9 258.464C142.152 258.464 139.533 257.524 137.475 255.701L136.964 255.247L148.261 243.982L148.708 244.494C151.635 247.827 152.261 252.637 150.338 257.044L150.235 257.274L150.005 257.377C148.331 258.106 146.593 258.464 144.9 258.464ZM138.849 255.176C141.705 257.364 145.616 257.799 149.27 256.302C150.778 252.65 150.357 248.735 148.184 245.869L138.849 255.176Z" fill="#C9AA4D"/>
<path d="M130.421 258.438C128.715 258.438 126.964 258.074 125.271 257.338L125.041 257.236L124.939 257.005C123.035 252.592 123.674 247.782 126.613 244.456L127.067 243.944L138.319 255.253L137.808 255.701C135.756 257.511 133.15 258.438 130.421 258.438ZM126.012 256.263C129.661 257.773 133.571 257.351 136.434 255.176L127.137 245.831C124.952 248.69 124.524 252.605 126.012 256.263Z" fill="#C9AA4D"/>
<path d="M148.261 245.339L137.002 234.036L137.514 233.588C140.849 230.659 145.648 230.032 150.05 231.957L150.28 232.059L150.382 232.29C152.286 236.703 151.647 241.513 148.708 244.84L148.261 245.339ZM138.887 234.113L148.184 243.458C150.369 240.599 150.804 236.684 149.309 233.025C145.66 231.516 141.75 231.938 138.887 234.113Z" fill="#C9AA4D"/>
<path d="M147.691 220.942L146.789 221.849L160.303 235.304L161.204 234.397L147.691 220.942Z" fill="#C9AA4D"/>
<path d="M128.213 220.908L114.651 234.316L115.549 235.226L129.111 221.818L128.213 220.908Z" fill="#C9AA4D"/>
<path d="M160.762 254.294L146.328 268.033L147.209 268.96L161.642 255.221L160.762 254.294Z" fill="#C9AA4D"/>
<path d="M115.043 254.223L114.138 255.125L128.128 269.198L129.034 268.296L115.043 254.223Z" fill="#C9AA4D"/>
<path d="M146.847 221.034L127.787 221.081L127.79 222.36L146.85 222.314L146.847 221.034Z" fill="#C9AA4D"/>
<path d="M113.989 234.851L113.868 253.932L115.146 253.94L115.267 234.859L113.989 234.851Z" fill="#C9AA4D"/>
<path d="M160.597 234.976L160.558 255.285L161.835 255.288L161.875 234.979L160.597 234.976Z" fill="#C9AA4D"/>
<path d="M147.16 267.776L128.969 267.83L128.973 269.109L147.164 269.055L147.16 267.776Z" fill="#C9AA4D"/>
<path d="M144.983 229.366C144.485 229.366 144.012 229.168 143.667 228.816C143.315 228.464 143.124 227.997 143.124 227.498C143.124 226.999 143.322 226.532 143.673 226.181C144.025 225.829 144.517 225.618 144.989 225.637C145.488 225.637 145.954 225.835 146.306 226.187C146.657 226.539 146.849 227.006 146.849 227.505H146.21H146.849C146.849 228.004 146.651 228.471 146.299 228.822C145.948 229.174 145.481 229.366 144.983 229.366ZM144.983 226.916C144.83 226.916 144.683 226.974 144.568 227.089C144.459 227.198 144.395 227.345 144.395 227.505C144.395 227.658 144.453 227.805 144.568 227.92C144.676 228.029 144.823 228.093 144.983 228.093C145.136 228.093 145.283 228.036 145.398 227.92C145.507 227.812 145.571 227.665 145.571 227.505C145.571 227.351 145.513 227.204 145.398 227.089C145.29 226.98 145.143 226.923 144.983 226.916Z" fill="#C9AA4D"/>
<path d="M130.99 229.341C129.961 229.341 129.124 228.503 129.13 227.473C129.13 226.974 129.329 226.507 129.68 226.156C130.031 225.804 130.498 225.612 130.996 225.612C130.996 225.612 130.996 225.612 131.003 225.612C132.031 225.612 132.862 226.45 132.862 227.48C132.856 228.509 132.019 229.341 130.99 229.341ZM130.99 226.898C130.836 226.898 130.69 226.955 130.574 227.07C130.466 227.179 130.402 227.326 130.402 227.486C130.402 227.64 130.459 227.787 130.574 227.902C130.683 228.01 130.83 228.074 130.99 228.074C131.143 228.074 131.29 228.017 131.405 227.902C131.514 227.793 131.578 227.646 131.578 227.486C131.578 227.16 131.316 226.898 130.99 226.898Z" fill="#C9AA4D"/>
<path d="M144.926 263.863C144.926 263.863 144.919 263.863 144.926 263.863C144.427 263.863 143.961 263.664 143.609 263.312C143.258 262.961 143.066 262.494 143.066 261.995C143.066 261.496 143.264 261.029 143.616 260.677C143.967 260.325 144.434 260.121 144.932 260.133C145.961 260.133 146.791 260.971 146.791 262.001C146.785 263.025 145.948 263.863 144.926 263.863ZM144.926 261.413C144.772 261.413 144.625 261.47 144.51 261.585C144.402 261.694 144.338 261.841 144.338 262.001C144.338 262.155 144.395 262.302 144.51 262.417C144.619 262.526 144.766 262.59 144.926 262.59C145.079 262.59 145.226 262.532 145.341 262.417C145.449 262.308 145.513 262.161 145.513 262.001C145.507 261.675 145.245 261.413 144.926 261.413Z" fill="#C9AA4D"/>
<path d="M130.932 263.837C129.904 263.837 129.067 262.999 129.073 261.969C129.073 260.939 129.91 260.108 130.932 260.108C130.932 260.108 130.932 260.108 130.939 260.108C131.437 260.108 131.904 260.306 132.255 260.658C132.606 261.01 132.798 261.477 132.798 261.976C132.798 262.475 132.6 262.942 132.249 263.293C131.897 263.645 131.431 263.837 130.932 263.837ZM130.932 261.387C130.613 261.387 130.351 261.649 130.351 261.969C130.351 262.289 130.613 262.551 130.932 262.558C131.086 262.558 131.233 262.5 131.348 262.385C131.456 262.276 131.52 262.129 131.52 261.969C131.52 261.816 131.463 261.669 131.348 261.554C131.233 261.451 131.092 261.387 130.932 261.387Z" fill="#C9AA4D"/>
<path d="M120.742 239.569C120.243 239.569 119.777 239.371 119.426 239.019C119.074 238.667 118.882 238.2 118.882 237.701C118.882 236.678 119.719 235.84 120.742 235.84C120.742 235.84 120.742 235.84 120.748 235.84C121.777 235.84 122.608 236.678 122.608 237.708C122.601 238.737 121.771 239.569 120.742 239.569ZM120.742 237.119C120.588 237.119 120.441 237.177 120.333 237.292C120.224 237.401 120.16 237.548 120.16 237.708C120.16 237.861 120.218 238.008 120.333 238.123C120.441 238.232 120.588 238.296 120.748 238.296C121.068 238.296 121.33 238.034 121.33 237.714C121.33 237.381 121.068 237.119 120.742 237.119Z" fill="#C9AA4D"/>
<path d="M120.715 253.577C119.687 253.577 118.85 252.739 118.856 251.71C118.856 251.211 119.054 250.744 119.405 250.392C119.757 250.04 120.223 249.848 120.722 249.848C120.722 249.848 120.722 249.848 120.728 249.848C121.226 249.848 121.693 250.046 122.044 250.398C122.396 250.75 122.587 251.217 122.587 251.716C122.587 252.215 122.389 252.682 122.038 253.034C121.68 253.385 121.214 253.577 120.715 253.577ZM120.715 251.127C120.562 251.127 120.415 251.185 120.3 251.3C120.191 251.409 120.127 251.556 120.127 251.716C120.127 252.036 120.389 252.298 120.709 252.304C120.862 252.304 121.009 252.247 121.124 252.132C121.233 252.023 121.297 251.876 121.297 251.716C121.297 251.562 121.239 251.415 121.124 251.3C121.022 251.191 120.875 251.127 120.715 251.127Z" fill="#C9AA4D"/>
<path d="M155.2 239.627C155.2 239.627 155.194 239.627 155.2 239.627C154.171 239.627 153.334 238.789 153.341 237.759C153.341 237.26 153.539 236.793 153.89 236.441C154.242 236.089 154.708 235.897 155.206 235.897C155.206 235.897 155.206 235.897 155.213 235.897C155.711 235.897 156.178 236.096 156.529 236.448C156.88 236.799 157.072 237.266 157.072 237.765C157.072 238.264 156.874 238.731 156.523 239.083C156.158 239.435 155.692 239.627 155.2 239.627ZM155.2 237.183C155.047 237.183 154.9 237.241 154.785 237.356C154.676 237.465 154.612 237.612 154.612 237.772C154.612 238.091 154.874 238.354 155.194 238.36C155.347 238.36 155.494 238.303 155.603 238.187C155.711 238.079 155.775 237.932 155.775 237.772C155.775 237.618 155.718 237.471 155.603 237.356C155.5 237.241 155.353 237.183 155.2 237.183Z" fill="#C9AA4D"/>
<path d="M155.174 253.635C154.676 253.635 154.203 253.437 153.852 253.085C153.5 252.733 153.309 252.266 153.309 251.767C153.309 250.744 154.146 249.906 155.168 249.906C156.197 249.906 157.027 250.744 157.027 251.774C157.027 252.272 156.829 252.739 156.478 253.091C156.139 253.443 155.673 253.635 155.174 253.635ZM155.174 251.185C154.855 251.185 154.593 251.447 154.587 251.767C154.587 251.921 154.644 252.068 154.759 252.183C154.868 252.292 155.015 252.356 155.174 252.356C155.328 252.356 155.475 252.298 155.583 252.183C155.692 252.074 155.756 251.927 155.756 251.767C155.756 251.454 155.494 251.185 155.174 251.185Z" fill="#C9AA4D"/>
<path d="M157.986 262.833C156.772 262.833 155.558 262.596 154.401 262.123L154.887 260.939C156.906 261.771 159.123 261.758 161.136 260.92C163.149 260.076 164.714 258.502 165.538 256.481C166.369 254.46 166.356 252.24 165.519 250.225C164.676 248.21 163.104 246.643 161.085 245.818L161.57 244.635C163.903 245.594 165.724 247.404 166.701 249.733C167.672 252.061 167.685 254.632 166.727 256.967C165.768 259.302 163.96 261.125 161.634 262.104C160.452 262.59 159.219 262.833 157.986 262.833Z" fill="#C9AA4D"/>
<path d="M117.821 262.763C114.089 262.763 110.549 260.537 109.061 256.865C107.099 252.036 109.431 246.509 114.255 244.552L114.735 245.735C110.562 247.43 108.549 252.208 110.243 256.379C111.936 260.556 116.709 262.571 120.881 260.876L121.361 262.059C120.198 262.539 119.003 262.763 117.821 262.763Z" fill="#C9AA4D"/>
<path d="M161.57 245.204L161.091 244.021C163.11 243.202 164.695 241.641 165.538 239.626C166.388 237.618 166.401 235.392 165.583 233.371C163.89 229.194 159.117 227.179 154.944 228.874L154.465 227.69C159.289 225.733 164.81 228.061 166.765 232.891C168.72 237.72 166.395 243.24 161.57 245.204Z" fill="#C9AA4D"/>
<path d="M114.256 245.121C111.924 244.161 110.103 242.351 109.125 240.023C108.154 237.695 108.141 235.123 109.1 232.789C111.074 227.966 116.601 225.65 121.419 227.627L120.933 228.81C116.767 227.102 111.988 229.098 110.282 233.268C109.451 235.29 109.464 237.509 110.301 239.524C111.144 241.539 112.716 243.106 114.735 243.931L114.256 245.121Z" fill="#C9AA4D"/>
<path d="M129.418 274.43C128.204 274.43 126.99 274.193 125.833 273.72C121.016 271.743 118.703 266.21 120.683 261.387L121.865 261.873C120.159 266.044 122.153 270.828 126.319 272.536C128.338 273.368 130.555 273.355 132.568 272.517C134.581 271.673 136.146 270.099 136.97 268.078L138.153 268.564C137.194 270.899 135.386 272.722 133.06 273.7C131.891 274.187 130.651 274.43 129.418 274.43Z" fill="#C9AA4D"/>
<path d="M120.741 228.305C118.779 223.475 121.111 217.949 125.936 215.991C130.76 214.028 136.28 216.362 138.236 221.192L137.054 221.672C135.36 217.501 130.587 215.48 126.415 217.175C124.396 217.994 122.811 219.554 121.968 221.569C121.118 223.578 121.105 225.804 121.923 227.825L120.741 228.305Z" fill="#C9AA4D"/>
<path d="M146.344 274.455C142.613 274.455 139.073 272.229 137.584 268.557L138.766 268.077C140.459 272.254 145.232 274.269 149.405 272.574C153.577 270.879 155.59 266.101 153.897 261.924L155.079 261.444C157.04 266.274 154.708 271.8 149.884 273.758C148.727 274.231 147.526 274.455 146.344 274.455Z" fill="#C9AA4D"/>
<path d="M155.136 228.368L153.954 227.882C154.785 225.861 154.772 223.641 153.935 221.626C153.091 219.612 151.52 218.044 149.501 217.219C145.334 215.511 140.555 217.507 138.849 221.678L137.667 221.192C139.641 216.369 145.168 214.053 149.986 216.036C152.318 216.995 154.139 218.806 155.117 221.134C156.088 223.462 156.095 226.034 155.136 228.368Z" fill="#C9AA4D"/>
<path d="M53.0888 160.166L9.08061 160.089L9.15712 116.081L53.1653 116.158L53.0888 160.166ZM10.2576 158.912L51.9118 158.983L51.9824 117.329L10.3282 117.258L10.2576 158.912Z" fill="#C9AA4D"/>
<path d="M31.067 169.24L0 138.067L31.173 107L62.24 138.173L31.067 169.24ZM1.66546 138.067L31.067 167.575L60.5745 138.173L31.173 108.665L1.66546 138.067Z" fill="#C9AA4D"/>
<path d="M46.8271 153.88L15.3599 153.827L15.4129 122.36L46.8801 122.413L46.8271 153.88ZM16.5369 152.65L45.6501 152.703L45.7031 123.59L16.5899 123.537L16.5369 152.65Z" fill="#C9AA4D"/>
<path d="M31.0788 160.371L8.86868 138.079L31.1553 115.869L53.3653 138.155L31.0788 160.371ZM10.5341 138.085L31.0846 158.706L51.7058 138.155L31.1553 117.534L10.5341 138.085Z" fill="#C9AA4D"/>
<path d="M42.3958 149.438L19.8032 149.396L19.8444 126.804L42.437 126.845L42.3958 149.438ZM20.9802 148.225L41.2188 148.261L41.2541 128.022L21.0155 127.987L20.9802 148.225Z" fill="#C9AA4D"/>
<path d="M31.0906 154.098L15.1422 138.097L31.1435 122.148L47.0919 138.15L31.0906 154.098ZM16.8076 138.097L31.0964 152.433L45.4324 138.144L31.1435 123.808L16.8076 138.097Z" fill="#C9AA4D"/>
<path d="M38.3997 145.429L23.8107 145.406L23.8343 130.817L38.4291 130.835L38.3997 145.429ZM24.9936 144.229L37.2286 144.252L37.2521 132.017L25.0113 131.994L24.9936 144.229Z" fill="#C9AA4D"/>
<path d="M31.1023 148.437L20.8035 138.102L31.1376 127.804L41.4364 138.138L31.1023 148.437ZM22.469 138.102L31.1082 146.771L39.7768 138.132L31.1376 129.469L22.469 138.102Z" fill="#C9AA4D"/>
<path d="M46.3712 137.559L46.3691 138.736L61.5113 138.763L61.5134 137.586L46.3712 137.559Z" fill="#C9AA4D"/>
<path d="M1.93702 137.477L1.93497 138.654L17.0771 138.681L17.0792 137.504L1.93702 137.477Z" fill="#C9AA4D"/>
<path d="M30.4814 152.764L30.4519 167.906L31.6289 167.909L31.6584 152.766L30.4814 152.764Z" fill="#C9AA4D"/>
<path d="M30.563 108.33L30.5335 123.472L31.7105 123.474L31.74 108.332L30.563 108.33Z" fill="#C9AA4D"/>
<path d="M42.4814 148.077L41.6477 148.908L52.3366 159.633L53.1703 158.802L42.4814 148.077Z" fill="#C9AA4D"/>
<path d="M11.1128 116.602L10.2791 117.433L20.968 128.158L21.8016 127.327L11.1128 116.602Z" fill="#C9AA4D"/>
<path d="M20.4869 147.596L9.76166 158.285L10.5925 159.119L21.3177 148.43L20.4869 147.596Z" fill="#C9AA4D"/>
<path d="M51.9663 116.232L41.2411 126.921L42.072 127.755L52.7972 117.066L51.9663 116.232Z" fill="#C9AA4D"/>
</svg>
